<?xml version="1.0" standalone="no"?>
<!DOCTYPE svg PUBLIC "-//W3C//DTD SVG 1.1//EN" "http://www.w3.org/Graphics/SVG/1.1/DTD/svg11.dtd" >
<svg xmlns="http://www.w3.org/2000/svg">
<metadata></metadata>
<defs>
<font id="officinasanitctregular" horiz-adv-x="1024" vert-adv-y="2048" >
<font-face units-per-em="2048" ascent="1638" descent="-410" />
<missing-glyph horiz-adv-x="421" />
<glyph horiz-adv-x="0" vert-adv-y="0" />
<glyph horiz-adv-x="682" />
<glyph unicode=" " horiz-adv-x="421" vert-adv-y="2528" />
<glyph unicode="!" horiz-adv-x="683" vert-adv-y="2528" d="M198 116q0 63 48 106q41 37 98 37q62 0 105 -48q37 -41 37 -96q0 -64 -48 -107q-40 -37 -96 -37q-64 0 -107 48q-37 40 -37 97zM235 1376v8q0 21 28 21h153q28 0 28 -19v-10l-45 -807q-1 -28 -29 -27h-59q-17 0 -22 5q-6 5 -7 22z" />
<glyph unicode="&#x22;" vert-adv-y="2528" d="M257 1376v9q0 20 28 20h113q30 0 28 -18l-1 -11l-30 -485q-2 -17 -7 -22q-6 -5 -22 -5h-46q-28 -1 -29 27zM598 1387q0 18 28 18h113q28 0 28 -20v-9l-31 -485q-1 -17 -7 -22q-5 -5 -22 -5h-46q-27 -1 -29 27l-33 485z" />
<glyph unicode="#" vert-adv-y="2528" d="M74 262v74q-1 29 28 28h137l40 409h-122q-29 0 -28 28v78q-1 29 28 28h138l43 414q2 27 30 26h72q28 0 28 -17q0 -1 -1 -13l-43 -410h259l44 414q1 27 29 26h72q28 0 28 -18q0 -4 -1 -12l-43 -410h112q29 1 28 -28v-78q1 -28 -28 -28h-127l-40 -409h112q28 1 28 -28v-74 q0 -29 -28 -28h-128l-39 -372q-2 -16 -7 -21t-22 -5h-72q-28 0 -28 19q0 4 1 11l38 368h-259l-39 -372q-2 -16 -7 -21q-6 -5 -23 -5h-72q-30 0 -28 19l1 11l39 368h-122q-29 -1 -28 28zM368 364h260l40 409h-260z" />
<glyph unicode="$" vert-adv-y="2528" d="M124 79q0 6 4 16l37 95q4 11 12 11q7 0 17 -5q61 -34 149 -64q77 -25 130 -26v514q-159 92 -199 126q-117 103 -117 254q0 167 133 269q78 59 183 70v117q-1 28 28 28h54q29 0 28 -28v-113q126 -8 226 -57q54 -27 54 -43q0 -4 -4 -15l-33 -88q-5 -11 -16 -11q-9 0 -32 12 q-111 57 -195 66v-467q163 -93 216 -146q100 -101 100 -250q0 -137 -81 -239q-86 -107 -235 -128v-134q1 -29 -28 -28h-54q-29 -1 -28 28v125q-144 4 -285 65q-64 28 -64 46zM323 1015q0 -109 80 -180q25 -22 70 -51v418q-53 -8 -91 -41q-59 -51 -59 -146zM583 112 q60 14 97 56q57 62 57 159q0 113 -82 192q-25 24 -72 57v-464z" />
<glyph unicode="%" horiz-adv-x="1555" vert-adv-y="2528" d="M60 975q0 197 97 292q72 71 186 71q107 0 175 -69q85 -87 85 -265q0 -198 -97 -294q-71 -71 -182 -71q-112 0 -179 69q-85 88 -85 267zM194 981q0 -106 35 -174q29 -56 97 -56t101 53q42 69 42 189q0 233 -133 233q-67 0 -100 -54q-42 -68 -42 -191zM424 -25q0 8 5 19 l558 1337q7 21 31 21h85q27 0 27 -16q0 -6 -5 -18l-558 -1337q-8 -22 -38 -21h-77q-29 0 -28 15zM951 314q0 198 97 293q72 71 186 71q108 0 176 -69q85 -86 85 -267q0 -195 -97 -291q-71 -71 -183 -71t-179 69q-85 88 -85 265zM1085 322q0 -230 132 -230q69 0 102 53 q42 69 42 190q0 231 -134 231q-142 0 -142 -244z" />
<glyph unicode="&#x26;" horiz-adv-x="1251" vert-adv-y="2528" d="M117 349q0 187 161 311q36 28 109 79q-50 59 -84 106q-93 131 -93 249q0 129 89 224q101 107 275 107q110 0 186 -52q122 -85 122 -249q0 -157 -137 -284q-58 -55 -142 -109l339 -383q66 106 62 265q1 24 25 24h100q24 0 24 -35q0 -120 -50 -240q-26 -63 -68 -120 l141 -161q6 -7 6 -13q0 -9 -13 -19l-81 -67q-12 -9 -21 -9t-21 14l-124 140q-71 -58 -129 -89q-113 -59 -254 -59q-210 0 -325 119q-97 102 -97 251zM286 360q0 -126 85 -194q70 -56 183 -56q150 0 282 117l-368 425q-53 -42 -84 -72q-98 -95 -98 -220zM364 1112 q0 -89 77 -192q29 -40 67 -83q15 -17 15 -16q71 50 113 90q94 91 94 199q0 98 -64 148q-47 36 -114 36q-72 0 -123 -42q-65 -54 -65 -140z" />
<glyph unicode="'" horiz-adv-x="682" vert-adv-y="2528" d="M257 1376v9q0 20 28 20h113q30 0 28 -18l-1 -11l-30 -485q-2 -17 -7 -22q-6 -5 -22 -5h-46q-28 -1 -29 27z" />
<glyph unicode="(" horiz-adv-x="759" vert-adv-y="2528" d="M169 510q0 329 131 604q80 167 212 335q33 42 51 42q11 0 23 -8l51 -30q14 -9 14 -19q0 -12 -19 -38q-152 -204 -222 -406q-73 -208 -73 -480q0 -271 73 -480q70 -201 222 -406q19 -26 19 -37q0 -12 -44 -38q-32 -19 -44 -19q-16 0 -37 25q-71 82 -147 206 q-210 344 -210 749z" />
<glyph unicode=")" horiz-adv-x="759" vert-adv-y="2528" d="M108 -413q0 11 19 37q152 204 222 406q73 208 73 480t-73 480q-70 203 -222 406q-19 27 -19 38q0 10 11 17q59 40 77 40q16 0 37 -25q71 -85 147 -206q210 -340 210 -750q0 -330 -131 -603q-77 -162 -212 -336q-33 -41 -51 -41q-12 0 -24 7l-49 30q-15 9 -15 20z" />
<glyph unicode="*" vert-adv-y="2528" d="M173 1112q0 5 4 17l28 85q7 23 19 23q3 0 17 -6l220 -94l-21 238q-1 8 -1 11q0 19 28 19h90q29 0 28 -17v-7l-1 -6l-20 -238l219 94q15 6 19 6q10 1 18 -23l27 -86q5 -11 5 -16q0 -13 -24 -19l-233 -53l157 -180q11 -13 11 -19q0 -9 -16 -21l-73 -53q-11 -8 -18 -8 q-11 0 -21 16l-123 205l-123 -205q-10 -17 -19 -17q-7 0 -20 9l-73 54q-15 11 -15 19t11 20l157 180l-233 54q-24 6 -24 18z" />
<glyph unicode="+" vert-adv-y="2528" d="M47 470v99q-1 29 28 28h361v361q-1 30 28 28h98q29 1 28 -28v-361h362q28 1 28 -28v-99q0 -29 -28 -28h-362v-361q1 -29 -28 -28h-98q-29 -1 -28 28v361h-361q-29 -1 -28 28z" />
<glyph unicode="," horiz-adv-x="607" vert-adv-y="2528" d="M130 -214q0 4 4 16l120 409q6 24 30 23h165q28 0 28 -16q0 -6 -7 -19l-236 -433q-11 -19 -19 -19q-4 0 -18 5l-45 15q-22 8 -22 19z" />
<glyph unicode="-" horiz-adv-x="721" vert-adv-y="2528" d="M77 474v98q-1 29 28 28h513q28 1 28 -28v-98q0 -29 -28 -28h-513q-29 -1 -28 28z" />
<glyph unicode="." horiz-adv-x="607" vert-adv-y="2528" d="M159 116q0 63 48 106q41 37 98 37q62 0 105 -48q37 -41 37 -96q0 -64 -48 -107q-40 -37 -96 -37q-64 0 -107 48q-37 40 -37 97z" />
<glyph unicode="/" horiz-adv-x="910" vert-adv-y="2528" d="M-66 -455q0 6 6 20l793 1906q10 22 32 20h81q27 0 27 -15q0 -7 -5 -20l-794 -1906q-10 -19 -33 -20h-80q-27 0 -27 15z" />
<glyph unicode="0" vert-adv-y="2528" d="M91 646q0 357 139 547q112 153 299 153q114 0 205 -67q198 -147 198 -606q0 -331 -108 -518q-107 -183 -316 -183q-176 0 -275 134q-142 194 -142 540zM257 657q0 -268 73 -421q57 -119 181 -119q139 0 194 138q61 151 61 414q0 532 -250 532q-111 0 -172 -108 q-87 -153 -87 -436z" />
<glyph unicode="1" vert-adv-y="2528" d="M154 1045q0 6 17 19l362 254h103q29 1 28 -28v-1155h178q29 1 28 -28v-79q1 -29 -28 -28h-542q-29 -1 -28 28v79q-1 29 28 28h209v1000l-286 -165q-13 -7 -21 -7q-7 0 -17 18l-23 44q-8 14 -8 20z" />
<glyph unicode="2" vert-adv-y="2528" d="M150 13q-8 87 17 208q32 173 153 308q64 72 178 151q114 78 136 98q90 83 90 205q0 89 -45 148q-53 69 -156 69q-101 0 -159 -67q-40 -47 -73 -137q-6 -17 -17 -17q-4 0 -16 3l-90 28q-16 4 -16 18q0 15 18 61q99 256 362 256q172 0 268 -105q90 -100 90 -265 q0 -135 -74 -232q-49 -64 -169 -149q-139 -100 -181 -146q-119 -129 -136 -299h531q29 1 28 -28v-93q1 -29 -28 -28h-686q-22 0 -25 13z" />
<glyph unicode="3" vert-adv-y="2528" d="M113 62q0 6 4 16l41 91q5 13 17 13q4 0 11 -3q137 -62 261 -62q144 0 214 81q56 66 56 175q0 252 -298 252h-70q-29 -1 -28 28v83q-1 29 28 28h69q103 0 168 47q95 69 95 200q0 92 -53 145q-56 56 -146 56q-106 0 -199 -95q-37 -38 -47 -38q-7 0 -13 5l-74 64q-7 6 -7 12 q0 29 94 100q111 86 254 86q147 0 244 -87q105 -93 105 -245q0 -217 -211 -302q84 -25 131 -62q55 -43 86 -108q38 -82 38 -175q0 -169 -107 -276q-119 -119 -331 -119q-142 0 -278 52q-54 20 -54 38z" />
<glyph unicode="4" vert-adv-y="2528" d="M64 318v116l531 880q11 19 34 16l102 -17q25 -4 25 -18q0 -5 -8 -19l-522 -853h391l23 331q0 27 28 27h74q29 0 28 -28v-330h164q17 0 23 -5q5 -6 5 -23v-77q0 -29 -28 -28h-164v-290q1 -29 -28 -28h-97q-29 -1 -28 28v290h-525q-29 -1 -28 28z" />
<glyph unicode="5" vert-adv-y="2528" d="M137 31q0 6 2 15l22 92q3 15 17 15q8 0 21 -4q90 -32 199 -32q173 0 246 85q77 92 77 240q0 129 -61 199q-54 61 -153 61q-124 0 -235 -113q-14 -13 -22 -13t-16 3l-72 23q-22 7 -22 19q0 6 1 14l64 657q2 27 29 26h533q29 1 28 -28v-88q1 -29 -28 -28h-428l-47 -415 q122 88 247 88q145 0 240 -98q108 -111 108 -302q0 -199 -113 -331q-124 -144 -353 -144q-131 0 -255 33q-29 8 -29 26z" />
<glyph unicode="6" vert-adv-y="2528" d="M120 534q0 244 69 426q148 386 495 386q93 0 163 -29q14 -5 14 -15q0 -4 -3 -13l-24 -93q-2 -11 -12 -11q-6 0 -15 3q-65 25 -131 25q-158 0 -260 -138q-89 -119 -117 -312q54 61 95 87q75 46 166 46q169 0 262 -137q81 -117 81 -301q0 -190 -85 -317q-48 -72 -118 -114 q-88 -55 -191 -55q-138 0 -238 93q-151 140 -151 469zM286 462q0 -150 45 -235q58 -110 180 -110q135 0 191 132q35 83 35 209q0 298 -227 298q-128 0 -188 -112q-36 -65 -36 -182z" />
<glyph unicode="7" vert-adv-y="2528" d="M124 1199v91q-1 29 28 28h694q28 1 28 -28v-48l-473 -1240q-8 -20 -21 -20q-6 0 -13 1l-109 16q-25 4 -25 17q0 5 5 18l443 1137h-529q-29 -1 -28 28z" />
<glyph unicode="8" vert-adv-y="2528" d="M82 340q0 152 111 254q60 55 188 104q-103 43 -154 98q-87 92 -87 220q0 132 94 227q103 103 282 103q201 0 304 -128q63 -78 63 -184q0 -133 -80 -224q-48 -57 -151 -109q120 -47 191 -120q100 -101 100 -238q0 -130 -91 -234q-121 -137 -340 -137q-214 0 -328 113 q-102 102 -102 255zM251 332q0 -119 95 -180q73 -46 171 -46q113 0 185 62q73 64 73 163q0 135 -133 221q-43 28 -94 50q-40 18 -40 17q-88 -38 -131 -65q-60 -37 -96 -103q-30 -56 -30 -119zM301 1022q0 -87 61 -149q47 -47 108 -83q45 -27 48 -26q69 31 107 60 q101 75 101 195q0 97 -66 149q-60 47 -150 47q-93 0 -150 -51q-59 -54 -59 -142z" />
<glyph unicode="9" vert-adv-y="2528" d="M109 870q0 208 109 340q111 136 289 136q379 0 379 -563q0 -355 -117 -561q-143 -250 -398 -250q-93 0 -170 23q-27 8 -23 41l9 79q2 17 15 17q8 0 18 -3q54 -18 124 -18q147 0 230 86q108 111 148 376q-98 -156 -267 -156q-139 0 -228 98q-118 128 -118 355zM275 879 q0 -157 64 -244q56 -78 156 -78q123 0 186 114q39 71 39 216q0 314 -219 314q-96 0 -160 -78q-66 -81 -66 -244z" />
<glyph unicode=":" horiz-adv-x="607" vert-adv-y="2528" d="M159 116q0 63 48 106q41 37 98 37q62 0 105 -48q37 -41 37 -96q0 -64 -48 -107q-40 -37 -96 -37q-64 0 -107 48q-37 40 -37 97zM159 827q0 62 48 106q41 37 98 37q62 0 105 -48q37 -41 37 -96q0 -64 -48 -107q-40 -37 -96 -37q-64 0 -107 47q-37 41 -37 98z" />
<glyph unicode=";" horiz-adv-x="607" vert-adv-y="2528" d="M129 -214q0 4 4 16l120 409q6 24 30 23h165q28 0 28 -16q0 -6 -7 -19l-236 -433q-11 -19 -19 -19q-4 0 -18 5l-45 15q-22 8 -22 19zM190 827q0 62 48 106q40 37 98 37q62 0 105 -48q37 -41 37 -96q0 -64 -48 -107q-40 -37 -96 -37q-64 0 -107 47q-37 42 -37 98z" />
<glyph unicode="&#x3c;" horiz-adv-x="1054" vert-adv-y="2528" d="M70 631v144l913 432v-167l-734 -338l734 -337v-167z" />
<glyph unicode="=" vert-adv-y="2528" d="M47 330v99q-1 29 28 28h877q28 1 28 -28v-99q0 -29 -28 -28h-877q-28 -1 -28 28zM47 610v99q-1 29 28 28h877q28 1 28 -28v-99q0 -29 -28 -28h-877q-27 -1 -28 28z" />
<glyph unicode="&#x3e;" horiz-adv-x="1054" vert-adv-y="2528" d="M71 198v167l733 337l-733 338v167l912 -432v-144z" />
<glyph unicode="?" horiz-adv-x="872" vert-adv-y="2528" d="M80 1335q0 20 67 45q120 43 242 43q149 0 240 -65q118 -85 118 -255q0 -265 -313 -348v-185q1 -29 -28 -28h-83q-29 -1 -28 28v253q-1 31 35 41q116 32 168 65q87 53 87 171q0 85 -53 133q-54 49 -159 49q-103 0 -223 -50q-11 -5 -18 -5q-14 0 -19 16l-29 78q-4 10 -4 14 zM225 116q0 62 48 106q40 37 98 37q61 0 105 -48q37 -41 37 -96q0 -64 -48 -107q-41 -37 -96 -37q-64 0 -107 48q-37 41 -37 97z" />
<glyph unicode="@" horiz-adv-x="1934" vert-adv-y="2528" d="M140 369q0 281 155 535q144 236 396 354q198 92 418 92q231 0 408 -97q277 -152 277 -508q0 -237 -119 -408q-112 -161 -266 -215q-63 -22 -119 -22q-88 0 -135 59q-37 45 -40 126q-125 -184 -282 -184q-74 0 -120 52q-56 62 -56 182q0 209 108 383q63 102 139 138 q52 25 118 25q74 0 122 -37q18 -15 44 -45l22 48q5 13 19 13h93q12 0 12 -9q0 -1 -2 -11l-100 -471q-5 -24 -5 -59q0 -97 82 -97q90 0 173 73q75 65 123 173q57 129 57 285q0 209 -115 328q-73 75 -175 113q-124 46 -262 46q-229 0 -423 -114q-195 -116 -304 -324 q-103 -198 -103 -417q0 -175 68 -317q142 -301 571 -301q331 0 608 148q22 12 33 12q12 0 19 -17l25 -59q4 -8 4 -17q0 -19 -35 -37q-85 -42 -199 -77q-239 -72 -474 -72q-363 0 -562 199q-110 111 -161 280q-37 122 -37 251zM804 342q0 -114 72 -114q81 0 160 95 q60 74 88 202l36 167q-74 68 -145 68q-87 0 -148 -136q-63 -140 -63 -282z" />
<glyph unicode="A" horiz-adv-x="1100" vert-adv-y="2528" d="M42 15q0 3 4 18l413 1349q4 16 9 20q4 3 21 3h122q17 0 21 -3q4 -4 9 -20l413 -1349q4 -14 4 -18q0 -15 -28 -15h-132q-24 0 -30 23l-114 398h-416l-114 -398q-7 -23 -31 -23h-123q-28 0 -28 15zM376 562h340l-123 452l-16 58l-11 46q-12 51 -21 92q-16 -82 -46 -195z " />
<glyph unicode="B" horiz-adv-x="1138" vert-adv-y="2528" d="M197 28v1349q-1 28 26 28h2h336q185 0 269 -49q64 -38 100 -109q40 -80 40 -176q0 -149 -86 -250q-42 -49 -114 -84q98 -27 147 -72q109 -99 109 -277q0 -157 -89 -262q-87 -104 -259 -121q-49 -5 -153 -5h-300h-2q-27 0 -26 28zM366 136h201q121 0 183 44q94 68 94 214 q0 152 -112 219q-60 36 -174 36h-192v-513zM366 785h148q60 0 83 3q91 13 144 88q46 65 46 175q0 141 -84 191q-45 27 -147 27h-190v-484z" />
<glyph unicode="C" horiz-adv-x="948" vert-adv-y="2528" d="M107 717q0 355 117 542q55 87 154 134q82 40 178 40q168 0 303 -111q35 -29 35 -44q0 -8 -6 -16l-58 -77q-6 -9 -16 -9q-9 0 -71 48q-94 72 -185 72q-77 0 -136 -43q-133 -98 -133 -517q0 -343 92 -505q34 -60 94 -95q47 -27 103 -27q104 0 229 109q14 12 23 12 q6 0 17 -14l51 -69q6 -8 6 -15q0 -21 -55 -64q-121 -96 -279 -96q-217 0 -327 165q-136 202 -136 580z" />
<glyph unicode="D" horiz-adv-x="1138" vert-adv-y="2528" d="M197 28v1349q-1 28 26 28h2h214q238 0 355 -75q116 -74 175 -222q63 -157 63 -379q0 -448 -215 -622q-133 -107 -359 -107h-233h-2q-27 0 -26 28zM366 146h105q101 0 148 15q145 45 200 241q33 118 33 325q0 248 -60 366q-65 128 -201 155q-56 11 -141 11h-84v-1113z" />
<glyph unicode="E" horiz-adv-x="948" vert-adv-y="2528" d="M197 28v1349q-1 28 26 28h2h632q28 0 28 -15q0 -5 -4 -18l-31 -91q-9 -22 -31 -22h-453v-461h401q29 2 28 -28v-80q1 -29 -28 -28h-401v-516h489q29 1 28 -28v-90q1 -28 -26 -28h-2h-630q-18 0 -23 5t-5 23z" />
<glyph unicode="F" horiz-adv-x="872" vert-adv-y="2528" d="M197 28v1349q-1 28 26 28h2h631q29 0 29 -15q0 -3 -5 -18l-30 -91q-10 -21 -31 -22h-453v-475h401q29 2 28 -28v-80q1 -29 -28 -28h-401v-620q1 -28 -26 -28h-2h-113h-2q-27 0 -26 28z" />
<glyph unicode="G" horiz-adv-x="1100" vert-adv-y="2528" d="M107 696q0 431 185 619q116 118 313 118q154 0 290 -81q47 -28 47 -43q0 -4 -6 -17l-43 -87q-5 -9 -14 -9q-7 0 -64 37q-99 63 -210 63q-135 0 -207 -92q-65 -82 -85 -191q-24 -133 -24 -292q0 -381 113 -518q39 -47 110 -73q56 -21 117 -21q79 0 160 39v423h-159 q-29 -1 -28 28v84q-1 29 28 28h300q28 1 28 -28v-598q0 -21 -18 -32q-59 -36 -153.5 -58.5t-186.5 -22.5q-198 0 -319 127q-96 100 -132 240q-42 165 -42 357z" />
<glyph unicode="H" horiz-adv-x="1252" vert-adv-y="2528" d="M197 28v1349q0 18 5 23t23 5h113h2q27 0 26 -28v-576h521v576q-1 28 26 28h2h113h2q27 0 26 -28v-1349q1 -28 -26 -28h-2h-113h-2q-27 0 -26 28v632h-521v-632q1 -28 -26 -28h-2h-113h-2q-27 0 -26 28z" />
<glyph unicode="I" horiz-adv-x="682" vert-adv-y="2528" d="M48 28v77q-1 29 28 28h182v1139h-182q-29 -1 -28 28v77q-1 28 26 28h2h532h2q27 0 26 -28v-77q1 -29 -28 -28h-182v-1139h182q29 1 28 -28v-77q1 -28 -26 -28h-2h-532h-2q-27 0 -26 28z" />
<glyph unicode="J" horiz-adv-x="910" vert-adv-y="2528" d="M21 363q0 28 4 34t15 6h121q9 0 14 -6q3 -6 2 -40q0 -248 197 -248q130 0 176 104q18 43 18 210v842h-355q-29 -2 -28 28v84q-1 28 26 28h2h495h2q27 0 26 -28v-943q0 -127 -5 -166q-18 -156 -135 -235q-90 -61 -224 -61q-224 0 -309 173q-42 84 -42 218z" />
<glyph unicode="K" horiz-adv-x="1062" vert-adv-y="2528" d="M197 28v1349q-1 29 28 28h113q29 1 28 -28v-666l527 697q12 15 20 15q6 0 19 -9l75 -53q16 -11 16 -20q0 -7 -10 -20l-482 -624l493 -603q10 -12 10 -19q0 -10 -15 -20l-93 -64q-13 -9 -18 -9q-10 0 -21 15l-521 668v-637q1 -29 -28 -28h-113q-29 -1 -28 28z" />
<glyph unicode="L" horiz-adv-x="910" vert-adv-y="2528" d="M197 28v1349q-1 28 26 28h2h113h2q27 0 26 -28v-1231h519q28 0 28 -15q0 -5 -5 -18l-33 -91q-8 -21 -30 -22h-620h-2q-27 0 -26 28z" />
<glyph unicode="M" horiz-adv-x="1366" vert-adv-y="2528" d="M151 21v8l77 1349q1 27 27 27h2h121q17 0 22 -3q4 -3 9 -19l242 -706q21 -67 28 -128q9 62 28 128l243 706q7 22 31 22h128h2q26 0 26 -27l77 -1349v-6q0 -13 -4 -17q-5 -6 -23 -6h-118h-2q-27 0 -27 28l-30 1038q1 53 8 157q-18 -114 -43 -180l-240 -693q-5 -14 -10 -18 q-6 -4 -21 -4h-59q-16 0 -21 4q-6 5 -10 18l-231 692q-26 82 -40 181q1 -29 3 -75q2 -71 2 -82l-30 -1038q0 -28 -27 -28h-2h-110q-28 0 -28 21z" />
<glyph unicode="N" horiz-adv-x="1176" vert-adv-y="2528" d="M178 28v1349q-1 28 26 28h2h129q22 -1 32 -20l449 -954q34 -78 56 -173q-11 88 -13 178v941q-1 28 26 28h2h93h2q27 0 26 -28v-1349q1 -28 -26 -28h-2h-110q-21 1 -32 20l-470 1014q-33 75 -61 192q18 -108 20 -201v-997q1 -28 -26 -28h-2h-93h-2q-27 0 -26 28z" />
<glyph unicode="O" horiz-adv-x="1138" vert-adv-y="2528" d="M107 693q0 740 478 740q133 0 232 -72q213 -156 213 -655q0 -375 -134 -568q-115 -166 -338 -166q-210 0 -316 152q-135 191 -135 569zM289 707q0 -316 80 -478q59 -120 198 -120q151 0 211 129q69 148 69 453q0 331 -78 485q-61 120 -200 120q-91 0 -156 -57 q-124 -110 -124 -532z" />
<glyph unicode="P" horiz-adv-x="986" vert-adv-y="2528" d="M197 28v1349q-1 28 26 28h2h316q179 0 254 -41q162 -90 162 -335q0 -153 -66 -261q-82 -132 -242 -165q-52 -10 -135 -10h-148v-565q1 -28 -26 -28h-2h-113h-2q-27 0 -26 28zM366 741h135q72 0 105 7q179 39 179 278q0 173 -112 221q-42 18 -148 18h-159v-524z" />
<glyph unicode="Q" horiz-adv-x="1138" vert-adv-y="2528" d="M107 698q0 376 134 570q115 165 338 165q451 0 451 -730q0 -374 -139 -573q60 -62 219 -161q11 -6 11 -16t-9 -16l-107 -75q-10 -6 -19 -6q-20 0 -83 47q-64 49 -131 121q-102 -52 -215 -52q-450 0 -450 726zM289 706q0 -315 79 -477q57 -120 196 -120q95 0 159 57 q124 110 124 525q0 330 -78 485q-61 120 -200 120q-91 0 -156 -57q-124 -110 -124 -533z" />
<glyph unicode="R" horiz-adv-x="1062" vert-adv-y="2528" d="M197 28v1349q-1 28 26 28h2h315q173 0 251 -39q72 -35 111 -103q51 -89 51 -209q0 -197 -122 -316q-57 -55 -144 -84l341 -613q7 -14 7 -22q0 -10 -25 -15l-123 -24q-4 -1 -7 -1q-18 0 -27 18l-331 642h-156v-611q1 -29 -28 -28h-113q-29 -1 -28 28zM366 767h158 q107 0 163 44q94 72 94 231q0 153 -95 205q-47 25 -157 25h-163v-505z" />
<glyph unicode="S" horiz-adv-x="986" vert-adv-y="2528" d="M80 95q0 7 3 15l40 99q4 11 14 11q7 0 35 -15q161 -86 297 -86q125 0 192 71q59 62 59 162q0 110 -82 185q-52 48 -175 118q-157 90 -199 124q-142 114 -142 284q0 126 75 224q111 146 329 146q154 0 289 -67q53 -27 53 -44q0 -4 -4 -14l-37 -93q-4 -12 -16 -12 q-7 0 -88 40q-93 45 -200 45q-101 0 -162 -50q-63 -53 -63 -152q0 -110 83 -174q44 -34 246 -153q111 -66 150 -102q121 -115 121 -284q0 -130 -70 -233q-114 -168 -362 -168q-168 0 -324 74q-62 29 -62 49z" />
<glyph unicode="T" horiz-adv-x="834" vert-adv-y="2528" d="M9 1290v87q-1 28 26 28h2h800q28 0 28 -15q0 -4 -4 -18l-30 -88q-7 -22 -30 -22h-296v-1234q1 -28 -26 -28h-2h-112h-2q-27 0 -26 28v1234h-300q-29 -1 -28 28z" />
<glyph unicode="U" horiz-adv-x="1213" vert-adv-y="2528" d="M174 377v1000q-1 28 26 28h2h113h2q27 0 26 -28v-995q0 -136 50 -198q60 -75 210 -75q146 0 220 78q58 61 58 195v995q-1 28 26 28h2h105h2q27 0 26 -28v-1000q0 -185 -96 -283q-64 -66 -150 -95q-79 -27 -201 -27q-421 0 -421 405z" />
<glyph unicode="V" horiz-adv-x="986" vert-adv-y="2528" d="M28 1374q0 12 24 18l115 28q14 3 16 3q12 0 18 -24l258 -1083q13 -58 31 -163q17 97 32 159l269 1087q5 23 18 23q5 0 15 -2l111 -27q23 -6 23 -17q0 -7 -3 -17l-362 -1336q-5 -15 -10 -19t-21 -4h-143q-16 0 -21 4t-9 19l-358 1335q-3 11 -3 16z" />
<glyph unicode="W" horiz-adv-x="1403" vert-adv-y="2528" d="M46 1379q0 13 24 18l108 20q10 2 15 2q14 0 18 -24l176 -1013q12 -86 18 -255q11 158 25 249l198 1005q5 25 30 24h109q27 0 30 -25l170 -1012q12 -99 21 -249q6 148 19 249l188 1027q5 24 19 24q5 0 15 -3l106 -22q23 -5 23 -18q0 -5 -2 -15l-282 -1337q-4 -15 -9 -19.5 t-21 -4.5h-135h-2q-25 0 -28 25l-175 1133l-213 -1133q-3 -16 -8.5 -20.5t-21.5 -4.5h-127q-26 0 -30 25l-256 1339q-2 13 -2 15z" />
<glyph unicode="X" horiz-adv-x="986" vert-adv-y="2528" d="M24 40q0 5 7 19l365 673l-335 612q-7 13 -7 19q0 11 22 18l102 35q12 5 16 5q10 0 20 -18l231 -425q20 -41 49 -108q21 51 54 116l222 415q10 19 20 19q5 0 17 -5l99 -41q21 -9 21 -18q0 -6 -8 -20l-336 -599l375 -677q8 -14 8 -20q0 -11 -23 -18l-110 -34q-13 -4 -16 -4 q-10 0 -20 19l-263 498q-29 56 -42 96q-23 -57 -42 -94l-263 -500q-10 -19 -20 -19q-4 0 -16 4l-105 33q-22 8 -22 19z" />
<glyph unicode="Y" horiz-adv-x="872" vert-adv-y="2528" d="M-48 1368q0 11 22 17l124 32q13 3 16 3q10 0 19 -19l259 -532q31 -65 56 -127q21 57 54 129l251 529q9 19 20 19q7 0 15 -2l112 -30q23 -7 23 -18q0 -6 -7 -19l-389 -754v-568q1 -28 -26 -28h-2h-112h-2q-27 0 -26 28v564l-401 756q-6 10 -6 20z" />
<glyph unicode="Z" horiz-adv-x="910" vert-adv-y="2528" d="M54 28v108l603 1127h-542q-27 0 -27 17q0 6 2 15l22 86q6 24 30 24h683h2q27 0 26 -28v-99l-607 -1132h601q18 0 24 -5q5 -6 5 -23v-90q0 -28 -27 -28h-2h-765h-2q-27 0 -26 28z" />
<glyph unicode="[" horiz-adv-x="758" vert-adv-y="2528" d="M238 -392v1829q-1 29 28 28h354q29 1 28 -28v-70q1 -29 -28 -28h-225v-1633h225q29 1 28 -28v-70q1 -29 -28 -28h-354q-29 -1 -28 28z" />
<glyph unicode="\" horiz-adv-x="910" vert-adv-y="2528" d="M37 1476q0 15 28 15h80q22 0 32 -20l794 -1906q6 -14 6 -19q0 -16 -28 -16h-79q-22 0 -34 20l-793 1906q-6 14 -6 20z" />
<glyph unicode="]" horiz-adv-x="759" vert-adv-y="2528" d="M113 -322q-1 29 28 28h225v1633h-225q-30 -1 -28 28v70q-1 29 28 28h354q29 1 28 -28v-1829q1 -29 -28 -28h-354q-29 -1 -28 28v70z" />
<glyph unicode="^" horiz-adv-x="1054" vert-adv-y="2528" d="M66 788l366 620h190l367 -620h-159l-304 506l-303 -506h-157z" />
<glyph unicode="_" horiz-adv-x="1054" vert-adv-y="2528" d="M0 -150h1054v-110h-1054v110z" />
<glyph unicode="`" vert-adv-y="2528" d="M203 1325q0 5 9 18l59 87q11 16 20 16q7 0 20 -10l298 -227q15 -12 15 -20q0 -7 -8 -19l-25 -36q-7 -10 -16 -10q-7 0 -20 7l-333 173q-19 10 -19 21z" />
<glyph unicode="a" horiz-adv-x="948" vert-adv-y="2528" d="M75 260q0 348 541 356v68q0 98 -39 136q-47 47 -150 47q-107 0 -243 -61q-9 -4 -15 -4q-10 0 -14 11l-30 83q-3 9 -3 15q0 15 52 39q124 56 275 56q322 0 322 -287v-387q0 -116 15 -173q12 -47 41 -96q4 -7 4 -11q0 -7 -8 -12l-90 -55q-10 -6 -16 -6q-14 0 -38 38 q-23 37 -39 91q-135 -129 -294 -129q-125 0 -197 74q-74 77 -74 207zM233 271q0 -68 39 -116t110 -48q103 0 234 118v265q-383 -3 -383 -219z" />
<glyph unicode="b" vert-adv-y="2528" d="M109 51q0 6 7 14q20 28 37 72q20 54 20 144v1149q1 21 23 26l106 25l13 2q13 0 13 -23v-548q147 99 272 99q177 0 259 -146q62 -110 62 -309q0 -274 -82 -425q-85 -159 -290 -159q-144 0 -263 99q-40 -92 -67 -92q-6 0 -16 7l-87 55q-7 5 -7 10zM328 190q92 -79 213 -79 q128 0 174 130q40 112 40 293q0 179 -43 261q-42 80 -142 80q-75 0 -162 -49q-29 -16 -80 -51v-585z" />
<glyph unicode="c" horiz-adv-x="835" vert-adv-y="2528" d="M104 470q0 271 132 419q109 122 285 122q131 0 244 -76q51 -34 51 -54q0 -6 -4 -12l-45 -80q-7 -14 -17 -14q-6 0 -16 7q-64 48 -93 63q-59 30 -117 30q-70 0 -130 -39q-117 -77 -117 -343q0 -382 227 -382q80 0 160 46q18 10 81 55q8 6 15 6q8 0 14 -14l31 -77 q5 -13 5 -21q0 -14 -31 -37q-129 -97 -288 -97q-172 0 -274 120q-113 132 -113 378z" />
<glyph unicode="d" vert-adv-y="2528" d="M104 502q0 256 114 392q98 117 253 117q104 0 224 -65v484q0 19 20 26l109 25q7 2 11 2q15 0 15 -23v-1137q1 -109 12 -153q13 -47 39 -88q16 -26 16 -33t-10 -12l-92 -52q-11 -6 -16 -6q-13 0 -35 37q-21 37 -35 87q-72 -53 -118 -79q-93 -52 -185 -52q-143 0 -220 116 q-102 153 -102 414zM270 510q0 -216 50 -318q40 -81 140 -81q109 0 235 118v579q-115 67 -208 67q-110 0 -158 -72q-59 -87 -59 -293z" />
<glyph unicode="e" horiz-adv-x="948" vert-adv-y="2528" d="M104 491q0 244 117 389q105 131 287 131q145 0 242 -88q105 -94 125 -275q7 -57 7 -153q0 -37 -23 -37h-586q6 -147 56 -227q75 -120 213 -120q105 0 237 73q12 7 20 7q10 0 15 -11l37 -79q4 -10 4 -16q0 -19 -69 -52q-123 -61 -256 -61q-183 0 -294 122 q-132 146 -132 397zM273 585h444q-4 130 -48 203q-58 99 -171 99q-127 0 -187 -118q-32 -65 -38 -184z" />
<glyph unicode="f" horiz-adv-x="607" vert-adv-y="2528" d="M33 880v80q0 24 24 23h136v161q0 80 7 122q18 114 111 174q67 43 167 43q122 0 209 -52q15 -9 15 -19q0 -5 -4 -14l-34 -83q-5 -12 -16 -12q-7 0 -19 6q-90 43 -159 43q-64 0 -94 -41q-20 -26 -23 -61q-5 -43 -5 -109v-158h295q23 0 23 -14q0 -4 -3 -13l-27 -81 q-6 -19 -26 -18h-262v-833q1 -24 -24 -24h-107q-25 0 -24 24v833h-136q-24 -1 -24 23z" />
<glyph unicode="g" vert-adv-y="2528" d="M104 482q0 261 106 399q99 130 282 130q123 0 248 -85q18 47 35 72q16 23 24 23q6 0 15 -6l93 -56q8 -4 8 -12q0 -7 -12 -27q-52 -86 -52 -208v-316q0 -152 10 -349q4 -68 4 -113q0 -149 -62 -236q-93 -130 -302 -130q-161 0 -304 74q-41 21 -41 36q0 6 4 14l36 83 q5 11 14 11q7 0 17 -5q145 -76 267 -76q88 0 148 39q52 33 64 101q5 29 5 84q0 53 -2 104q-2 82 -2 105q-138 -111 -285 -111q-123 0 -206 91q-61 66 -83 144q-29 98 -29 220zM270 519q0 -195 51 -284q39 -69 132 -69q103 0 244 100v553q-112 58 -194 58q-100 0 -158 -71 q-75 -92 -75 -287z" />
<glyph unicode="h" horiz-adv-x="1062" vert-adv-y="2528" d="M175 24v1406q-1 19 20 26l109 25l13 2q13 0 13 -23v-583q73 65 128 92q85 42 187 42q137 0 199 -79q39 -49 46 -113q5 -48 5 -116v-679q0 -24 -24 -24h-108q-24 0 -23 24v682q0 88 -21 122q-31 50 -119 50q-113 0 -270 -129v-725q0 -24 -23 -24h-108q-24 0 -24 24z" />
<glyph unicode="i" horiz-adv-x="531" vert-adv-y="2528" d="M16 880v80q0 24 23 23h294q24 1 24 -23v-936q0 -24 -24 -24h-108q-24 0 -23 24v833h-163q-23 -1 -23 23zM141 1347q0 53 41 91q35 32 85 32q53 0 90 -41q32 -36 32 -83q0 -55 -41 -92q-35 -32 -83 -32q-55 0 -92 41q-32 36 -32 84z" />
<glyph unicode="j" horiz-adv-x="531" vert-adv-y="2528" d="M-190 -354q0 7 4 16l37 82q6 13 17 13q6 0 16 -5q100 -51 183 -51q89 0 118 65q18 40 18 162v929h-163q-25 -1 -24 23v80q-1 24 24 23h295q24 1 23 -23v-1068q0 -97 -17 -149q-27 -82 -102 -131q-72 -47 -177 -47q-111 0 -216 50q-36 17 -36 31zM142 1347q0 53 41 91 q35 32 85 32q53 0 90 -41q32 -36 32 -83q0 -55 -41 -92q-35 -32 -83 -32q-55 0 -92 41q-32 36 -32 84z" />
<glyph unicode="k" horiz-adv-x="910" vert-adv-y="2528" d="M174 24v1406q1 21 21 26l108 25l13 2q13 0 13 -23v-928l411 463q11 12 22 12q7 0 19 -8l76 -52q11 -7 11 -16t-10 -20l-351 -382l366 -438q8 -10 8 -17q0 -8 -11 -16l-84 -64q-10 -7 -16 -7q-7 0 -12 6l-429 512v-481q0 -24 -23 -24h-108q-24 0 -24 24z" />
<glyph unicode="l" horiz-adv-x="531" vert-adv-y="2528" d="M167 375v1056q1 21 23 26l106 25q5 1 13 1q13 0 13 -22v-1089q0 -150 5 -187q10 -78 84 -78q39 0 92 23q9 4 15 4q10 0 14 -12l25 -76q4 -11 4 -17q0 -16 -59 -33t-115 -17q-118 0 -176 73q-39 47 -42 140q-2 34 -2 183z" />
<glyph unicode="m" horiz-adv-x="1479" vert-adv-y="2528" d="M138 941q0 9 9 14l83 47q8 5 16 5q14 0 33 -38q16 -30 28 -79q72 57 128 84q77 37 158 37q146 0 198 -120q169 120 298 120q133 0 186 -89q36 -63 36 -199v-699q1 -24 -24 -24h-105q-24 0 -24 24v705q0 149 -131 149q-87 0 -208 -81v-773q1 -24 -23 -24h-106 q-25 0 -24 24v703q0 151 -132 151q-91 0 -205 -87v-767q0 -24 -24 -24h-105q-25 0 -24 24v737q0 91 -36 170q-2 6 -2 10z" />
<glyph unicode="n" horiz-adv-x="1062" vert-adv-y="2528" d="M138 936q0 8 9 13l94 53q10 6 16 6q14 0 34 -40q18 -36 29 -95q81 64 144 95q89 43 186 43q150 0 208 -98q30 -51 34 -120q2 -35 2 -87v-682q1 -24 -22 -24h-2h-107h-2q-23 0 -22 24v685q0 88 -29 125q-35 44 -107 44q-86 0 -165 -48q-46 -29 -103 -81v-725 q0 -24 -22 -24h-2h-108q-24 0 -23 24v704q0 82 -11 125q-8 29 -27 71q-4 7 -4 12z" />
<glyph unicode="o" vert-adv-y="2528" d="M104 488q0 146 44 265q96 258 377 258q185 0 288 -130q52 -66 81 -177q26 -99 26 -207q0 -146 -45 -266q-95 -259 -375 -259q-186 0 -289 129q-107 136 -107 387zM270 507q0 -210 65 -316q32 -53 98 -77q38 -14 81 -14q68 0 122 34q118 75 118 365q0 184 -63 287 q-59 96 -181 96q-119 0 -176 -92q-64 -102 -64 -283z" />
<glyph unicode="p" vert-adv-y="2528" d="M122 937q0 7 7 12l89 62q9 6 14 6q12 0 38 -40q23 -35 40 -85q65 50 112 74q88 45 182 45q177 0 248 -142q68 -138 68 -356q0 -240 -89 -394q-85 -147 -252 -147q-115 0 -241 89v-438q0 -19 -19 -25l-108 -30q-8 -2 -13 -2q-14 0 -14 23v1111q0 80 -8 115q-10 43 -34 83 q-20 33 -20 39zM338 196q128 -85 224 -85q119 0 158 115q34 99 34 282q0 176 -31 261q-17 44 -53 73q-41 33 -96 33q-71 0 -157 -49q-28 -16 -79 -52v-578z" />
<glyph unicode="q" vert-adv-y="2528" d="M104 477q0 304 142 450q81 84 215 84q109 0 204 -54q25 -15 66 -43q15 44 37 78q15 23 26 23q6 0 12 -4l84 -51q11 -7 11 -17q0 -4 -12 -30q-44 -91 -45 -202v-1085q0 -27 -19 -33l-110 -32q-8 -3 -13 -3q-14 0 -14 23v510q-130 -119 -270 -119q-150 0 -230 138 q-84 144 -84 367zM270 496q0 -211 56 -307q21 -36 63 -59q35 -19 70 -19q99 0 229 116v570q-120 78 -214 78q-204 0 -204 -379z" />
<glyph unicode="r" horiz-adv-x="683" vert-adv-y="2528" d="M135 935q0 10 12 18l86 53q7 5 15 5q16 0 42 -53q25 -51 37 -117q59 65 83 90q81 80 172 80q46 0 88 -19q14 -6 14 -14q0 -5 -4 -14l-50 -114q-3 -7 -10 -7q-2 0 -7 1q-42 14 -62 14q-51 0 -116 -63q-41 -39 -87 -93v-678q1 -24 -22 -24h-2h-108h-2q-22 0 -21 24v615 q0 117 -9 167q-10 54 -41 108q-8 14 -8 21z" />
<glyph unicode="s" horiz-adv-x="797" vert-adv-y="2528" d="M71 72q0 2 2 6l38 89q5 11 15 10q6 0 14 -4q144 -69 250 -69q72 0 116 37q47 41 47 111q0 52 -32 89q-26 30 -98 64q-170 80 -230 128q-93 76 -93 193t80 197q87 88 231 88q107 0 216 -48q47 -21 47 -37q0 -6 -4 -14l-36 -76q-6 -13 -18 -13q-6 0 -16 5q-113 51 -192 51 q-71 0 -112 -33q-44 -36 -44 -103q0 -62 41 -100q29 -28 72 -49l142 -69q109 -53 151 -104q53 -62 53 -158q0 -137 -99 -220q-86 -71 -227 -71q-147 0 -278 67q-28 13 -32 19q-4 4 -4 14z" />
<glyph unicode="t" horiz-adv-x="683" vert-adv-y="2528" d="M16 880v80q-1 24 24 23h146v281q-1 20 21 25l106 30q9 3 13 3q14 0 14 -23v-316h307q19 0 19 -13q0 -4 -3 -14l-22 -80q-4 -20 -28 -19h-273v-578q0 -95 20 -124q30 -43 103 -43q69 0 184 53q8 4 14 4q10 0 14 -14l24 -83q3 -8 3 -11q0 -13 -46 -34q-106 -48 -219 -48 q-161 0 -222 110q-29 52 -29 189v579h-146q-25 -1 -24 23z" />
<glyph unicode="u" vert-adv-y="2528" d="M150 245v708q0 20 21 26l107 28q8 2 13 2q14 0 14 -23v-638q0 -113 20 -162q30 -75 128 -75q78 0 170 47q45 23 86 58v737q0 20 21 26l107 28q8 2 13 2q14 0 14 -23v-714q0 -82 13 -130q10 -36 41 -81q5 -8 5 -13q0 -6 -7 -11l-93 -60q-8 -5 -14 -5q-12 0 -35 39 q-22 36 -37 84q-73 -57 -129 -83q-83 -40 -175 -40q-283 0 -283 273z" />
<glyph unicode="v" horiz-adv-x="872" vert-adv-y="2528" d="M7 960q0 13 20 17l115 24q10 2 12 2q11 0 17 -18l220 -670q11 -36 37 -129q18 67 40 128l243 673q6 18 16 18q4 0 13 -2l106 -29q19 -5 19 -17q0 -4 -4 -13l-373 -940q-6 -18 -26 -18h-78h-2q-17 0 -24 18l-347 944q-4 9 -4 12z" />
<glyph unicode="w" horiz-adv-x="1252" vert-adv-y="2528" d="M50 958q0 13 19 17l103 27q10 2 13 2q11 0 16 -20l140 -679q8 -41 21 -113q7 38 26 113l194 664q5 20 25 19h82q21 1 25 -20l167 -689q6 -25 16 -81q4 26 16 81l174 705q5 19 15 19q5 0 13 -2l95 -25q20 -5 20 -16q0 -4 -4 -13l-270 -942q-5 -19 -23 -19h-2h-79h-2 q-19 0 -24 19l-161 621q-9 37 -21 120l-5 42q-10 -83 -32 -159l-193 -624q-5 -19 -24 -19h-2h-75h-2q-19 0 -24 20l-235 941q-2 8 -2 11z" />
<glyph unicode="x" horiz-adv-x="910" vert-adv-y="2528" d="M32 40q0 6 8 16l336 447l-299 428q-6 8 -6 16q0 11 16 17l107 40q6 2 12 2q10 0 18 -12l179 -277q29 -45 58 -95q34 53 64 96l185 273q9 12 20 12q4 0 13 -4l100 -40q17 -7 17 -15q0 -6 -8 -18l-303 -407l322 -467q7 -11 7 -17q0 -9 -18 -15l-110 -41q-8 -3 -14 -3 q-8 0 -17 13l-208 319q-15 24 -50 82q-22 -36 -51 -78l-224 -323q-8 -12 -17 -12q-8 0 -14 3l-106 44q-17 7 -17 16z" />
<glyph unicode="y" horiz-adv-x="872" vert-adv-y="2528" d="M-14 -330q0 7 3 13l42 82q5 10 14 10q5 0 14 -6q106 -73 182 -73q101 0 157 175l42 129h-81q-19 0 -25 18l-321 910q-4 9 -4 13q0 11 18 17l111 39q11 3 15 3q9 0 15 -18l263 -775q18 -56 41 -148q17 81 33 145l203 780q4 17 19 17q3 0 10 -2l107 -38q19 -7 19 -17 q0 -4 -3 -12l-233 -804q-77 -268 -136 -393q-79 -168 -246 -168q-112 0 -217 62q-42 25 -42 41z" />
<glyph unicode="z" horiz-adv-x="834" vert-adv-y="2528" d="M65 23v83l517 748h-452q-24 -1 -23 23v83q-1 23 21 23h2h622h2q22 0 21 -23v-85l-511 -742h510q23 0 23 -13q0 -5 -4 -15l-38 -87q-8 -18 -26 -18h-641q-15 0 -19 4t-4 19z" />
<glyph unicode="{" horiz-adv-x="873" vert-adv-y="2528" d="M131 508v71q-1 28 28 28h40q100 1 141 45q41 42 40 137v365q-3 320 342 311h41q28 1 28 -28v-70q0 -29 -28 -28h-35q-107 0 -152 -45q-41 -42 -40 -137v-366q0 -114 -44 -173q-33 -42 -97 -74q73 -38 106 -89q35 -57 35 -159v-407q-1 -95 40 -138q40 -42 139 -45h48 q28 1 28 -28v-70q0 -29 -28 -28h-41q-343 -6 -342 311v407q6 181 -179 182h-42q-29 -1 -28 28z" />
<glyph unicode="|" horiz-adv-x="1054" vert-adv-y="2528" d="M443 -351v1756h167v-1756h-167z" />
<glyph unicode="}" horiz-adv-x="873" vert-adv-y="2528" d="M84 -322q-1 29 28 28h35q108 0 151 45q41 43 40 138v365q0 117 44 173q33 42 97 74q-75 39 -106 89q-35 57 -35 160v407q1 94 -40 137q-40 43 -139 45h-47q-29 -1 -28 28v70q-1 29 28 28h40q344 8 342 -311v-407q-6 -181 180 -182h42q28 1 28 -28v-70q0 -29 -28 -28h-41 q-101 -2 -141 -45q-41 -43 -40 -138v-365q2 -317 -342 -311h-40q-29 -1 -28 28v70z" />
<glyph unicode="~" horiz-adv-x="1405" vert-adv-y="2528" d="M199 1292q39 81 84 136q83 101 200 101q82 0 242 -81q90 -45 123 -56q43 -15 79 -15q69 0 122 58q34 36 70 99l89 -70q-43 -89 -86 -140q-85 -99 -198 -99q-53 0 -127 31q-40 16 -115 53q-141 69 -204 69q-71 0 -124 -61q-31 -35 -66 -95z" />
<glyph unicode="&#xa0;" horiz-adv-x="421" vert-adv-y="2528" />
<glyph unicode="&#xa2;" vert-adv-y="2528" d="M171 627q0 346 203 481q70 46 157 56v109q-1 29 28 28h53q29 1 28 -28v-108q114 -13 191 -55q51 -28 51 -45q0 -6 -6 -16l-44 -79q-6 -11 -15 -11q-8 0 -20 7q-86 48 -157 61v-751q73 13 170 67q9 6 16 6q8 0 13 -12l35 -87q4 -10 4 -15q0 -15 -72 -48q-77 -35 -166 -50 v-120q1 -29 -28 -28h-53q-29 -1 -28 28v113q-120 9 -203 76q-157 126 -157 421zM329 650q0 -175 53 -275q44 -83 149 -103v750q-84 -20 -125 -71q-77 -96 -77 -301z" />
<glyph unicode="&#xa3;" vert-adv-y="2528" d="M57 657v78q-1 28 28 28h156q-32 124 -32 210q0 167 115 266q121 103 314 103q133 0 251 -51q47 -20 47 -38q0 -8 -5 -17l-39 -78q-6 -12 -17 -12q-8 0 -22 7q-110 56 -227 56q-118 0 -187 -59q-77 -67 -77 -173q0 -64 30 -214h276q29 0 28 -28v-78q1 -29 -28 -28h-244 q36 -154 36 -255q0 -100 -30 -237h553q27 0 27 -17q0 -6 -4 -16l-32 -83q-9 -21 -31 -21h-844q-29 -1 -28 28v80q-1 29 28 28h175q31 136 31 242q0 117 -35 251h-185q-29 -1 -28 28z" />
<glyph unicode="&#xa5;" vert-adv-y="2528" d="M35 528v45q0 24 24 24h377l-64 133h-313q-24 -1 -24 24v44q0 25 24 24h268l-255 531l-3 5q-3 6 -3 11q0 9 20 15l118 33q9 3 15 3q8 0 15 -17l233 -534q3 -8 15 -32q19 -40 41 -96q26 69 54 130l225 532q7 17 17 17q4 0 13 -3l108 -32q19 -5 19 -14q0 -4 -5 -16 l-250 -533h262q24 1 24 -24v-44q0 -25 -24 -24h-305l-62 -133h367q24 0 24 -24v-45q0 -24 -24 -23h-368v-481q0 -24 -24 -24h-113q-23 0 -23 24v481h-379q-24 -1 -24 23z" />
<glyph unicode="&#xa8;" vert-adv-y="2528" d="M200 1294q0 47 36 81q31 28 76 28q47 0 80 -37q28 -31 28 -73q0 -49 -36 -82q-31 -28 -74 -28q-49 0 -82 36q-28 32 -28 75zM604 1294q0 47 36 81q31 28 76 28q47 0 80 -36q28 -32 28 -74q0 -49 -36 -82q-32 -28 -74 -28q-49 0 -82 36q-28 32 -28 75z" />
<glyph unicode="&#xa9;" horiz-adv-x="1449" vert-adv-y="2528" d="M70 701q0 207 96 383q96 175 262 269q140 79 305 79q177 0 334 -108q157 -109 240 -291q71 -156 71 -330q0 -204 -96 -380q-95 -176 -259 -269q-141 -81 -298 -81q-185 0 -342 108q-157 107 -241 291q-72 156 -72 329zM178 703q0 -260 161 -444q161 -183 385 -183 q226 0 386 183q160 184 160 442q0 263 -160 445q-161 183 -392 183q-147 0 -279 -93q-132 -92 -201 -249q-60 -134 -60 -284zM417 711q0 212 77 322q74 107 220 107q111 0 199 -67q28 -21 28 -37q0 -10 -7 -18l-36 -45q-9 -11 -21 -11q-11 0 -53 31q-55 39 -109 39 q-70 0 -104 -48q-51 -73 -51 -262q0 -350 165 -350q57 0 138 60q14 10 25 10q9 0 20 -13l33 -40q6 -8 6 -17q0 -20 -40 -50q-81 -58 -184 -58q-144 0 -218 101q-88 120 -88 346z" />
<glyph unicode="&#xab;" horiz-adv-x="986" vert-adv-y="2528" d="M48 491q0 8 8 19l344 433q11 14 20 14q6 0 18 -6l56 -31q19 -10 19 -20q0 -6 -9 -19l-264 -390l264 -390q10 -15 10 -20q0 -8 -19 -19l-57 -31q-14 -7 -18 -7q-8 0 -20 15l-344 433q-8 10 -8 19zM427 491q0 8 9 19l343 433q11 14 20 14q6 0 18 -6l57 -31q19 -11 19 -20 q0 -6 -10 -19l-263 -390l263 -390q10 -14 10 -20q0 -9 -19 -19l-57 -31q-13 -7 -18 -7q-8 0 -20 15l-343 433q-9 11 -9 19z" />
<glyph unicode="&#xad;" horiz-adv-x="721" vert-adv-y="2528" d="M77 474v98q-1 29 28 28h513q28 1 28 -28v-98q0 -29 -28 -28h-513q-29 -1 -28 28z" />
<glyph unicode="&#xae;" horiz-adv-x="1449" vert-adv-y="2528" d="M70 701q0 207 96 383q96 175 262 269q140 79 305 79q177 0 334 -108q157 -109 240 -291q71 -156 71 -330q0 -204 -96 -380q-95 -176 -259 -269q-141 -81 -298 -81q-185 0 -342 108q-157 107 -241 291q-72 156 -72 329zM178 703q0 -260 161 -444q161 -183 385 -183 q226 0 386 183q160 184 160 442q0 263 -160 445q-161 183 -392 183q-147 0 -279 -93q-132 -92 -201 -249q-60 -134 -60 -284zM487 329v759q0 30 31 29h192q108 0 159 -23q107 -48 107 -188q0 -116 -79 -188q-30 -26 -77 -45l199 -330q7 -10 7 -19q0 -17 -26 -22l-72 -13 q-5 -1 -8 -1q-17 0 -27 17l-198 354h-82v-330q0 -30 -31 -29h-64q-31 -1 -31 29zM613 758h83q152 0 152 141q0 78 -54 103q-27 13 -95 13h-86v-257z" />
<glyph unicode="&#xb4;" vert-adv-y="2528" d="M399 1190q0 7 16 19l298 227q13 10 20 10q8 0 19 -16l60 -87q9 -13 9 -21t-19 -18l-336 -174q-13 -7 -20 -7t-18 16l-20 31q-9 13 -9 20z" />
<glyph unicode="&#xb8;" vert-adv-y="2528" d="M346 -367q0 3 1 15l9 62q1 11 11 11q4 0 12 -3q42 -14 94 -14q81 0 81 48t-104 47q-57 0 -54 29l1 16v6l16 150h119l-10 -112q78 -9 108 -30q48 -34 48 -102q0 -74 -59 -117q-62 -45 -151 -45q-63 0 -105 17q-17 7 -17 22z" />
<glyph unicode="&#xbb;" horiz-adv-x="986" vert-adv-y="2528" d="M94 81q0 6 9 19l264 390l-264 390q-9 14 -9 20q0 9 19 19l57 31q13 7 18 7q8 0 20 -15l343 -432q9 -11 9 -20q0 -8 -9 -19l-343 -433q-11 -14 -21 -14q-5 0 -17 7l-57 30q-19 11 -19 20zM473 81q0 5 10 19l264 390l-264 390q-10 14 -10 20q0 9 19 19l57 31q13 7 19 7 q7 0 19 -15l343 -432q9 -11 9 -20q0 -8 -9 -19l-343 -433q-11 -14 -20 -14q-6 0 -18 7l-57 30q-19 11 -19 20z" />
<glyph unicode="&#xc1;" horiz-adv-x="1100" vert-adv-y="2528" d="M42 15q0 3 4 18l413 1349q4 16 9 20q4 3 21 3h122q17 0 21 -3q4 -4 9 -20l413 -1349q4 -14 4 -18q0 -15 -28 -15h-132q-24 0 -30 23l-114 398h-416l-114 -398q-7 -23 -31 -23h-123q-28 0 -28 15zM376 562h340l-123 452l-16 58l-11 46q-12 51 -21 92q-16 -82 -46 -195z M466 1601q0 8 18 18l326 200q12 8 18 8q12 0 22 -17l53 -93q7 -11 7 -19q0 -11 -20 -19l-360 -143q-13 -5 -19 -5q-9 0 -19 18l-18 32q-8 14 -8 20z" />
<glyph unicode="&#xc4;" horiz-adv-x="1100" vert-adv-y="2528" d="M42 15q0 3 4 18l413 1349q4 16 9 20q4 3 21 3h122q17 0 21 -3q4 -4 9 -20l413 -1349q4 -14 4 -18q0 -15 -28 -15h-132q-24 0 -30 23l-114 398h-416l-114 -398q-7 -23 -31 -23h-123q-28 0 -28 15zM229 1641q0 49 38 83q31 29 77 29q48 0 82 -37q29 -33 29 -76 q0 -50 -37 -84q-32 -29 -76 -29q-50 0 -84 37q-29 32 -29 77zM376 562h340l-123 452l-16 58l-11 46q-12 51 -21 92q-16 -82 -46 -195zM645 1641q0 49 37 83q32 29 78 29q48 0 82 -37q29 -32 29 -76q0 -51 -38 -84q-32 -29 -75 -29q-50 0 -84 37q-29 32 -29 77z" />
<glyph unicode="&#xc9;" horiz-adv-x="948" vert-adv-y="2528" d="M197 28v1349q-1 29 28 28h632q28 0 28 -15q0 -5 -4 -18l-31 -91q-9 -22 -31 -22h-453v-461h401q29 2 28 -28v-80q1 -29 -28 -28h-401v-516h489q29 1 28 -28v-90q1 -29 -28 -28h-630q-18 0 -23 5t-5 23zM414 1601q0 8 18 18l326 200q12 8 18 8q12 0 22 -17l53 -93 q7 -11 7 -19q0 -11 -20 -19l-360 -143q-13 -5 -19 -5q-9 0 -19 18l-18 32q-8 14 -8 20z" />
<glyph unicode="&#xcd;" horiz-adv-x="682" vert-adv-y="2528" d="M48 28v77q-1 29 28 28h182v1139h-182q-29 -1 -28 28v77q-1 29 28 28h532q29 1 28 -28v-77q1 -29 -28 -28h-182v-1139h182q29 1 28 -28v-77q1 -29 -28 -28h-532q-29 -1 -28 28zM187 1601q0 8 18 18l326 200q12 8 18 8q12 0 22 -17l53 -93q7 -11 7 -19q0 -11 -20 -19 l-360 -143q-13 -5 -19 -5q-9 0 -19 18l-18 32q-8 14 -8 20z" />
<glyph unicode="&#xd3;" horiz-adv-x="1138" vert-adv-y="2528" d="M107 693q0 740 478 740q133 0 232 -72q213 -156 213 -655q0 -375 -134 -568q-115 -166 -338 -166q-210 0 -316 152q-135 191 -135 569zM289 707q0 -316 80 -478q59 -120 198 -120q151 0 211 129q69 148 69 453q0 331 -78 485q-61 120 -200 120q-91 0 -156 -57 q-124 -110 -124 -532zM457 1601q0 8 18 18l326 200q12 8 18 8q12 0 22 -17l53 -93q7 -11 7 -19q0 -11 -20 -19l-360 -143q-13 -5 -19 -5q-9 0 -19 18l-18 32q-8 14 -8 20z" />
<glyph unicode="&#xd4;" horiz-adv-x="1138" vert-adv-y="2528" d="M107 693q0 740 478 740q133 0 232 -72q213 -156 213 -655q0 -375 -134 -568q-115 -166 -338 -166q-210 0 -316 152q-135 191 -135 569zM289 707q0 -316 80 -478q59 -120 198 -120q151 0 211 129q69 148 69 453q0 331 -78 485q-61 120 -200 120q-91 0 -156 -57 q-124 -110 -124 -532zM296 1597q0 11 13 20l223 153q21 15 38 15t38 -15l223 -153q13 -9 13 -21q0 -7 -8 -18l-25 -32q-10 -14 -20 -14q-8 0 -20 6l-201 108l-201 -108q-12 -6 -20 -6q-10 0 -20 14l-25 32q-8 11 -8 19z" />
<glyph unicode="&#xd6;" horiz-adv-x="1138" vert-adv-y="2528" d="M107 693q0 740 478 740q133 0 232 -72q213 -156 213 -655q0 -375 -134 -568q-115 -166 -338 -166q-210 0 -316 152q-135 191 -135 569zM248 1641q0 49 38 83q31 29 77 29q48 0 82 -37q29 -33 29 -76q0 -50 -37 -84q-32 -29 -76 -29q-50 0 -84 37q-29 32 -29 77zM289 707 q0 -316 80 -478q59 -120 198 -120q151 0 211 129q69 148 69 453q0 331 -78 485q-61 120 -200 120q-91 0 -156 -57q-124 -110 -124 -532zM664 1641q0 49 37 83q32 29 78 29q48 0 82 -37q29 -32 29 -76q0 -51 -38 -84q-32 -29 -75 -29q-50 0 -84 37q-29 32 -29 77z" />
<glyph unicode="&#xda;" horiz-adv-x="1213" vert-adv-y="2528" d="M174 377v1000q-1 29 28 28h113q29 1 28 -28v-995q0 -136 50 -198q60 -75 210 -75q146 0 220 78q58 61 58 195v995q-1 29 28 28h105q29 1 28 -28v-1000q0 -185 -96 -283q-64 -66 -150 -95q-79 -27 -201 -27q-421 0 -421 405zM495 1601q0 8 18 18l326 200q12 8 18 8 q12 0 22 -17l53 -93q7 -11 7 -19q0 -11 -20 -19l-360 -143q-13 -5 -19 -5q-9 0 -19 18l-18 32q-8 14 -8 20z" />
<glyph unicode="&#xdc;" horiz-adv-x="1213" vert-adv-y="2528" d="M174 377v1000q-1 29 28 28h113q29 1 28 -28v-995q0 -136 50 -198q60 -75 210 -75q146 0 220 78q58 61 58 195v995q-1 29 28 28h105q29 1 28 -28v-1000q0 -185 -96 -283q-64 -66 -150 -95q-79 -27 -201 -27q-421 0 -421 405zM286 1641q0 49 38 83q31 29 77 29q48 0 82 -37 q29 -33 29 -76q0 -50 -37 -84q-32 -29 -76 -29q-50 0 -84 37q-29 32 -29 77zM702 1641q0 49 37 83q32 29 78 29q48 0 82 -37q29 -32 29 -76q0 -51 -38 -84q-32 -29 -75 -29q-50 0 -84 37q-29 32 -29 77z" />
<glyph unicode="&#xdd;" horiz-adv-x="872" vert-adv-y="2528" d="M-48 1367q-1 12 22 18l124 32q13 3 16 3q10 0 19 -19l259 -532q31 -65 56 -127q21 57 54 129l251 529q9 19 20 19q7 0 15 -2l112 -30q23 -7 23 -18q0 -6 -7 -19l-389 -754v-568q1 -29 -28 -28h-112q-29 -1 -28 28v564l-401 756q-6 10 -6 19zM381 1601q0 8 18 18l326 200 q12 8 18 8q12 0 22 -17l53 -93q7 -11 7 -19q0 -11 -20 -19l-360 -143q-13 -5 -19 -5q-9 0 -19 18l-18 32q-8 14 -8 20z" />
<glyph unicode="&#xdf;" horiz-adv-x="1252" vert-adv-y="2528" d="M175 24v1086q0 102 19 156q73 217 373 217q161 0 252 -74q86 -70 86 -189q0 -95 -54 -172q-20 -29 -103 -108q-69 -66 -69 -114q0 -38 34 -72q21 -21 95 -76q154 -113 197 -161q82 -93 82 -210q0 -102 -47 -188q-77 -141 -287 -141q-106 0 -202 35q-39 14 -39 30 q0 4 3 13l25 88q3 13 14 13q7 0 18 -5q99 -44 195 -44q171 0 171 172q0 83 -61 144q-32 31 -166 127q-103 74 -130 103q-55 58 -55 147q0 84 50 149q18 25 62 63q66 57 88 95q20 37 20 84q0 75 -48 119q-53 46 -143 46q-106 0 -164 -50q-43 -37 -53 -95q-8 -44 -8 -105 v-1083q1 -25 -23 -24h-108q-25 -1 -24 24z" />
<glyph unicode="&#xe1;" horiz-adv-x="948" vert-adv-y="2528" d="M75 260q0 348 541 356v68q0 98 -39 136q-47 47 -150 47q-107 0 -243 -61q-9 -4 -15 -4q-10 0 -14 11l-30 83q-3 9 -3 15q0 15 52 39q124 56 275 56q322 0 322 -287v-387q0 -116 15 -173q12 -47 41 -96q4 -7 4 -11q0 -7 -8 -12l-90 -55q-10 -6 -16 -6q-14 0 -38 38 q-23 37 -39 91q-135 -129 -294 -129q-125 0 -197 74q-74 77 -74 207zM233 271q0 -68 39 -116t110 -48q103 0 234 118v265q-383 -3 -383 -219zM381 1189q0 7 16 19l298 227q13 10 20 10q8 0 19 -16l60 -87q9 -13 9 -21t-19 -18l-336 -174q-13 -7 -20 -7t-18 16l-20 31 q-9 13 -9 20z" />
<glyph unicode="&#xe4;" horiz-adv-x="948" vert-adv-y="2528" d="M75 260q0 348 541 356v68q0 98 -39 136q-47 47 -150 47q-107 0 -243 -61q-9 -4 -15 -4q-10 0 -14 11l-30 83q-3 9 -3 15q0 15 52 39q124 56 275 56q322 0 322 -287v-387q0 -116 15 -173q12 -47 41 -96q4 -7 4 -11q0 -7 -8 -12l-90 -55q-10 -6 -16 -6q-14 0 -38 38 q-23 37 -39 91q-135 -129 -294 -129q-125 0 -197 74q-74 77 -74 207zM142 1294q0 47 36 81q31 28 76 28q47 0 80 -37q28 -31 28 -73q0 -49 -36 -82q-31 -28 -74 -28q-49 0 -82 36q-28 32 -28 75zM233 271q0 -68 39 -116t110 -48q103 0 234 118v265q-383 -3 -383 -219z M546 1294q0 47 36 81q31 28 76 28q47 0 80 -36q28 -32 28 -74q0 -49 -36 -82q-32 -28 -74 -28q-49 0 -82 36q-28 32 -28 75z" />
<glyph unicode="&#xe9;" horiz-adv-x="948" vert-adv-y="2528" d="M104 491q0 244 117 389q105 131 287 131q145 0 242 -88q105 -94 125 -275q7 -57 7 -153q0 -37 -23 -37h-586q6 -147 56 -227q75 -120 213 -120q105 0 237 73q12 7 20 7q10 0 15 -11l37 -79q4 -10 4 -16q0 -19 -69 -52q-123 -61 -256 -61q-183 0 -294 122 q-132 146 -132 397zM273 585h444q-4 130 -48 203q-58 99 -171 99q-127 0 -187 -118q-32 -65 -38 -184zM437 1190q0 7 16 19l298 227q13 10 20 10q8 0 19 -16l60 -87q9 -13 9 -21t-19 -18l-336 -174q-13 -7 -20 -7t-18 16l-20 31q-9 13 -9 20z" />
<glyph unicode="&#xed;" horiz-adv-x="531" vert-adv-y="2528" d="M16 880v80q0 24 23 23h294q24 1 24 -23v-936q0 -24 -24 -24h-108q-24 0 -23 24v833h-163q-23 -1 -23 23zM186 1190q0 7 16 19l298 227q13 10 20 10q8 0 19 -16l60 -87q9 -13 9 -21t-19 -18l-336 -174q-13 -7 -20 -7t-18 16l-20 31q-9 13 -9 20z" />
<glyph unicode="&#xf3;" vert-adv-y="2528" d="M104 488q0 146 44 265q96 258 377 258q185 0 288 -130q52 -66 81 -177q26 -99 26 -207q0 -146 -45 -266q-95 -259 -375 -259q-186 0 -289 129q-107 136 -107 387zM270 507q0 -210 65 -316q32 -53 98 -77q38 -14 81 -14q68 0 122 34q118 75 118 365q0 184 -63 287 q-59 96 -181 96q-119 0 -176 -92q-64 -102 -64 -283zM399 1190q0 7 16 19l298 227q13 10 20 10q8 0 19 -16l60 -87q9 -13 9 -21t-19 -18l-336 -174q-13 -7 -20 -7t-18 16l-20 31q-9 13 -9 20z" />
<glyph unicode="&#xf4;" vert-adv-y="2528" d="M104 488q0 146 44 265q96 258 377 258q185 0 288 -130q52 -66 81 -177q26 -99 26 -207q0 -146 -45 -266q-95 -259 -375 -259q-186 0 -289 129q-107 136 -107 387zM252 1218q0 9 15 20l226 180q13 10 19 10t19 -10l227 -180q14 -11 14 -19t-9 -20l-28 -37q-7 -10 -16 -10 q-8 0 -19 7l-188 122l-188 -122q-13 -8 -19 -8q-8 0 -20 15l-24 33q-9 13 -9 19zM270 507q0 -210 65 -316q32 -53 98 -77q38 -14 81 -14q68 0 122 34q118 75 118 365q0 184 -63 287q-59 96 -181 96q-119 0 -176 -92q-64 -102 -64 -283z" />
<glyph unicode="&#xf6;" vert-adv-y="2528" d="M104 488q0 146 44 265q96 258 377 258q185 0 288 -130q52 -66 81 -177q26 -99 26 -207q0 -146 -45 -266q-95 -259 -375 -259q-186 0 -289 129q-107 136 -107 387zM200 1294q0 47 36 81q31 28 76 28q47 0 80 -37q28 -31 28 -73q0 -49 -36 -82q-31 -28 -74 -28 q-49 0 -82 36q-28 32 -28 75zM270 507q0 -210 65 -316q32 -53 98 -77q38 -14 81 -14q68 0 122 34q118 75 118 365q0 184 -63 287q-59 96 -181 96q-119 0 -176 -92q-64 -102 -64 -283zM604 1294q0 47 36 81q31 28 76 28q47 0 80 -36q28 -32 28 -74q0 -49 -36 -82 q-32 -28 -74 -28q-49 0 -82 36q-28 32 -28 75z" />
<glyph unicode="&#xfa;" vert-adv-y="2528" d="M150 245v708q0 20 21 26l107 28q8 2 13 2q14 0 14 -23v-638q0 -113 20 -162q30 -75 128 -75q78 0 170 47q45 23 86 58v737q0 20 21 26l107 28q8 2 13 2q14 0 14 -23v-714q0 -82 13 -130q10 -36 41 -81q5 -8 5 -13q0 -6 -7 -11l-93 -60q-8 -5 -14 -5q-12 0 -35 39 q-22 36 -37 84q-73 -57 -129 -83q-83 -40 -175 -40q-283 0 -283 273zM419 1190q0 7 16 19l298 227q13 10 20 10q8 0 19 -16l60 -87q9 -13 9 -21t-19 -18l-336 -174q-13 -7 -20 -7t-18 16l-20 31q-9 13 -9 20z" />
<glyph unicode="&#xfc;" vert-adv-y="2528" d="M150 245v708q0 20 21 26l107 28q8 2 13 2q14 0 14 -23v-638q0 -113 20 -162q30 -75 128 -75q78 0 170 47q45 23 86 58v737q0 20 21 26l107 28q8 2 13 2q14 0 14 -23v-714q0 -82 13 -130q10 -36 41 -81q5 -8 5 -13q0 -6 -7 -11l-93 -60q-8 -5 -14 -5q-12 0 -35 39 q-22 36 -37 84q-73 -57 -129 -83q-83 -40 -175 -40q-283 0 -283 273zM225 1294q0 47 36 81q31 28 76 28q47 0 80 -37q28 -31 28 -73q0 -49 -36 -82q-31 -28 -74 -28q-49 0 -82 36q-28 32 -28 75zM629 1294q0 47 36 81q31 28 76 28q47 0 80 -36q28 -32 28 -74q0 -49 -36 -82 q-32 -28 -74 -28q-49 0 -82 36q-28 32 -28 75z" />
<glyph unicode="&#xfd;" horiz-adv-x="872" vert-adv-y="2528" d="M-14 -330q0 7 3 13l42 82q5 10 14 10q5 0 14 -6q106 -73 182 -73q101 0 157 175l42 129h-81q-19 0 -25 18l-321 910q-4 9 -4 13q0 11 18 17l111 39q11 3 15 3q9 0 15 -18l263 -775q18 -56 41 -148q17 81 33 145l203 780q4 17 19 17q3 0 10 -2l107 -38q19 -7 19 -17 q0 -4 -3 -12l-233 -804q-77 -268 -136 -393q-79 -168 -246 -168q-112 0 -217 62q-42 25 -42 41zM382 1190q0 7 16 19l298 227q13 10 20 10q8 0 19 -16l60 -87q9 -13 9 -21t-19 -18l-336 -174q-13 -7 -20 -7t-18 16l-20 31q-9 13 -9 20z" />
<glyph unicode="&#x10c;" horiz-adv-x="948" vert-adv-y="2528" d="M107 717q0 355 117 542q55 87 154 134q82 40 178 40q168 0 303 -111q35 -29 35 -44q0 -8 -6 -16l-58 -77q-6 -9 -16 -9q-9 0 -71 48q-94 72 -185 72q-77 0 -136 -43q-133 -98 -133 -517q0 -343 92 -505q34 -60 94 -95q47 -27 103 -27q104 0 229 109q14 12 23 12 q6 0 17 -14l51 -69q6 -8 6 -15q0 -21 -55 -64q-121 -96 -279 -96q-217 0 -327 165q-136 202 -136 580zM285 1720q0 7 8 18l25 33q10 13 19 13t21 -6l201 -107l201 107q12 6 21 6t19 -13l25 -33q8 -11 8 -19q0 -11 -13 -20l-223 -153q-21 -15 -38 -15t-38 15l-223 153 q-13 9 -13 21z" />
<glyph unicode="&#x10d;" horiz-adv-x="835" vert-adv-y="2528" d="M104 470q0 271 132 419q109 122 285 122q131 0 244 -76q51 -34 51 -54q0 -6 -4 -12l-45 -80q-7 -14 -17 -14q-6 0 -16 7q-64 48 -93 63q-59 30 -117 30q-70 0 -130 -39q-117 -77 -117 -343q0 -382 227 -382q80 0 160 46q18 10 81 55q8 6 15 6q8 0 14 -14l31 -77 q5 -13 5 -21q0 -14 -31 -37q-129 -97 -288 -97q-172 0 -274 120q-113 132 -113 378zM255 1360q0 7 10 20l27 37q7 10 16 10q8 0 19 -7l188 -122l188 122q13 8 20 8q8 0 19 -16l24 -32q9 -12 9 -19q0 -9 -14 -20l-227 -180q-12 -10 -19 -10q-6 0 -19 10l-226 180 q-15 11 -15 19z" />
<glyph unicode="&#x10e;" horiz-adv-x="1138" vert-adv-y="2528" d="M197 28v1349q-1 29 28 28h214q238 0 355 -75q116 -74 175 -222q63 -157 63 -379q0 -448 -215 -622q-133 -107 -359 -107h-233q-29 -1 -28 28zM295 1720q0 7 8 18l25 33q10 13 19 13t21 -6l201 -107l201 107q12 6 21 6t19 -13l25 -33q8 -11 8 -19q0 -11 -13 -20l-223 -153 q-21 -15 -38 -15t-38 15l-223 153q-13 9 -13 21zM366 146h105q101 0 148 15q145 45 200 241q33 118 33 325q0 248 -60 366q-65 128 -201 155q-56 11 -141 11h-84v-1113z" />
<glyph unicode="&#x10f;" horiz-adv-x="1138" vert-adv-y="2528" d="M104 502q0 256 114 392q98 117 253 117q104 0 224 -65v484q0 19 20 26l109 25q7 2 11 2q15 0 15 -23v-1137q1 -109 12 -153q13 -47 39 -88q16 -26 16 -33t-10 -12l-92 -52q-11 -6 -16 -6q-13 0 -35 37q-21 37 -35 87q-72 -53 -118 -79q-93 -52 -185 -52q-143 0 -220 116 q-102 153 -102 414zM270 510q0 -216 50 -318q40 -81 140 -81q109 0 235 118v579q-115 67 -208 67q-110 0 -158 -72q-59 -87 -59 -293zM927 1094q0 3 3 14l102 348q6 20 26 19h140q24 0 24 -13q0 -5 -7 -17l-200 -367q-9 -16 -16 -16q-5 0 -15 3l-38 13q-19 7 -19 16z" />
<glyph unicode="&#x11a;" horiz-adv-x="948" vert-adv-y="2528" d="M197 28v1349q-1 29 28 28h632q28 0 28 -15q0 -5 -4 -18l-31 -91q-9 -22 -31 -22h-453v-461h401q29 2 28 -28v-80q1 -29 -28 -28h-401v-516h489q29 1 28 -28v-90q1 -29 -28 -28h-630q-18 0 -23 5t-5 23zM271 1720q0 7 8 18l25 33q10 13 19 13t21 -6l201 -107l201 107 q12 6 21 6t19 -13l25 -33q8 -11 8 -19q0 -11 -13 -20l-223 -153q-21 -15 -38 -15t-38 15l-223 153q-13 9 -13 21z" />
<glyph unicode="&#x11b;" horiz-adv-x="948" vert-adv-y="2528" d="M104 491q0 244 117 389q105 131 287 131q145 0 242 -88q105 -94 125 -275q7 -57 7 -153q0 -37 -23 -37h-586q6 -147 56 -227q75 -120 213 -120q105 0 237 73q12 7 20 7q10 0 15 -11l37 -79q4 -10 4 -16q0 -19 -69 -52q-123 -61 -256 -61q-183 0 -294 122 q-132 146 -132 397zM256 1360q0 7 10 20l27 37q7 10 16 10q8 0 19 -7l188 -122l188 122q13 8 20 8q8 0 19 -16l24 -32q9 -12 9 -19q0 -9 -14 -20l-227 -180q-12 -10 -19 -10q-6 0 -19 10l-226 180q-15 11 -15 19zM273 585h444q-4 130 -48 203q-58 99 -171 99 q-127 0 -187 -118q-32 -65 -38 -184z" />
<glyph unicode="&#x139;" horiz-adv-x="910" vert-adv-y="2528" d="M197 28v1349q-1 29 28 28h113q29 1 28 -28v-1231h519q28 0 28 -15q0 -5 -5 -18l-33 -91q-8 -21 -30 -22h-620q-29 -1 -28 28zM230 1601q0 8 18 18l326 200q12 8 18 8q12 0 22 -17l53 -93q7 -11 7 -19q0 -11 -20 -19l-360 -143q-13 -5 -19 -5q-9 0 -19 18l-18 32 q-8 14 -8 20z" />
<glyph unicode="&#x13a;" horiz-adv-x="531" vert-adv-y="2528" d="M167 375v1056q1 21 23 26l106 25q5 1 13 1q13 0 13 -22v-1089q0 -150 5 -187q10 -78 84 -78q39 0 92 23q9 4 15 4q10 0 14 -12l25 -76q4 -11 4 -17q0 -16 -59 -33t-115 -17q-118 0 -176 73q-39 47 -42 140q-2 34 -2 183zM182 1601q0 5 17 18l256 200q10 8 19 8 q11 0 21 -17l54 -93q7 -12 7 -19q0 -9 -21 -19l-289 -143q-11 -5 -20 -5q-8 0 -19 18l-18 32q-7 13 -7 20z" />
<glyph unicode="&#x13d;" horiz-adv-x="910" vert-adv-y="2528" d="M197 28v1349q-1 29 28 28h113q29 1 28 -28v-1231h519q28 0 28 -15q0 -5 -5 -18l-33 -91q-8 -21 -30 -22h-620q-29 -1 -28 28zM598 1047q0 2 3 13l96 327q6 19 24 18h131q23 0 23 -12q0 -4 -6 -16l-188 -345q-9 -16 -15 -16q-2 0 -14 4l-36 12q-18 6 -18 15z" />
<glyph unicode="&#x13e;" horiz-adv-x="610" vert-adv-y="2528" d="M167 375v1056q1 21 23 26l106 25q5 1 13 1q13 0 13 -22v-1089q0 -150 5 -187q10 -78 84 -78q39 0 92 23q9 4 15 4q10 0 14 -12l25 -76q4 -11 4 -17q0 -16 -59 -33t-115 -17q-118 0 -176 73q-39 47 -42 140q-2 34 -2 183zM399 1094q0 3 3 14l102 348q6 20 26 19h140 q24 0 24 -13q0 -5 -7 -17l-200 -367q-9 -16 -16 -16q-5 0 -15 3l-38 13q-19 7 -19 16z" />
<glyph unicode="&#x147;" horiz-adv-x="1176" vert-adv-y="2528" d="M178 28v1349q-1 29 28 28h129q22 -1 32 -20l449 -954q34 -78 56 -173q-11 88 -13 178v941q-1 29 28 28h93q29 1 28 -28v-1349q1 -29 -28 -28h-110q-21 1 -32 20l-470 1014q-33 75 -61 192q18 -108 20 -201v-997q1 -29 -28 -28h-93q-29 -1 -28 28zM315 1720q0 7 8 18 l25 33q10 13 19 13t21 -6l201 -107l201 107q12 6 21 6t19 -13l25 -33q8 -11 8 -19q0 -11 -13 -20l-223 -153q-21 -15 -38 -15t-38 15l-223 153q-13 9 -13 21z" />
<glyph unicode="&#x148;" horiz-adv-x="1062" vert-adv-y="2528" d="M138 936q0 8 9 13l94 53q10 6 16 6q14 0 34 -40q18 -36 29 -95q81 64 144 95q89 43 186 43q150 0 208 -98q30 -51 34 -120q2 -35 2 -87v-682q1 -25 -24 -24h-107q-25 -1 -24 24v685q0 88 -29 125q-35 44 -107 44q-86 0 -165 -48q-46 -29 -103 -81v-725q0 -25 -24 -24 h-108q-24 0 -23 24v704q0 82 -11 125q-8 29 -27 71q-4 7 -4 12zM271 1360q0 7 10 20l27 37q7 10 16 10q8 0 19 -7l188 -122l188 122q13 8 20 8q8 0 19 -16l24 -32q9 -12 9 -19q0 -9 -14 -20l-227 -180q-12 -10 -19 -10q-6 0 -19 10l-226 180q-15 11 -15 19z" />
<glyph unicode="&#x154;" horiz-adv-x="1062" vert-adv-y="2528" d="M197 28v1349q-1 29 28 28h315q173 0 251 -39q72 -35 111 -103q51 -89 51 -209q0 -197 -122 -316q-57 -55 -144 -84l341 -613q7 -14 7 -22q0 -10 -25 -15l-123 -24q-24 -4 -34 17l-331 642h-156v-611q1 -29 -28 -28h-113q-29 -1 -28 28zM366 767h158q107 0 163 44 q94 72 94 231q0 153 -95 205q-47 25 -157 25h-163v-505zM419 1601q0 8 18 18l326 200q12 8 18 8q12 0 22 -17l53 -93q7 -11 7 -19q0 -11 -20 -19l-360 -143q-13 -5 -19 -5q-9 0 -19 18l-18 32q-8 14 -8 20z" />
<glyph unicode="&#x155;" horiz-adv-x="683" vert-adv-y="2528" d="M135 935q0 10 12 18l86 53q7 5 15 5q16 0 42 -53q25 -51 37 -117q59 65 83 90q81 80 172 80q46 0 88 -19q14 -6 14 -14q0 -5 -4 -14l-50 -114q-3 -7 -10 -7q-2 0 -7 1q-42 14 -62 14q-51 0 -116 -63q-41 -39 -87 -93v-678q1 -25 -24 -24h-108q-24 -1 -23 24v615 q0 117 -9 167q-10 54 -41 108q-8 14 -8 21zM285 1190q0 7 16 19l298 227q13 10 20 10q8 0 19 -16l60 -87q9 -13 9 -21t-19 -18l-336 -174q-13 -7 -20 -7t-18 16l-20 31q-9 13 -9 20z" />
<glyph unicode="&#x158;" horiz-adv-x="1062" vert-adv-y="2528" d="M197 28v1349q-1 29 28 28h315q173 0 251 -39q72 -35 111 -103q51 -89 51 -209q0 -197 -122 -316q-57 -55 -144 -84l341 -613q7 -14 7 -22q0 -10 -25 -15l-123 -24q-24 -4 -34 17l-331 642h-156v-611q1 -29 -28 -28h-113q-29 -1 -28 28zM258 1720q0 7 8 18l25 33 q10 13 19 13t21 -6l201 -107l201 107q12 6 21 6t19 -13l25 -33q8 -11 8 -19q0 -11 -13 -20l-223 -153q-21 -15 -38 -15t-38 15l-223 153q-13 9 -13 21zM366 767h158q107 0 163 44q94 72 94 231q0 153 -95 205q-47 25 -157 25h-163v-505z" />
<glyph unicode="&#x159;" horiz-adv-x="683" vert-adv-y="2528" d="M123 1360q0 7 10 20l27 37q7 10 16 10q8 0 19 -7l188 -122l188 122q13 8 20 8q8 0 19 -16l24 -32q9 -12 9 -19q0 -9 -14 -20l-227 -180q-12 -10 -19 -10q-6 0 -19 10l-226 180q-15 11 -15 19zM135 935q0 10 12 18l86 53q7 5 15 5q16 0 42 -53q25 -51 37 -117q59 65 83 90 q81 80 172 80q46 0 88 -19q14 -6 14 -14q0 -5 -4 -14l-50 -114q-3 -7 -10 -7q-2 0 -7 1q-42 14 -62 14q-51 0 -116 -63q-41 -39 -87 -93v-678q1 -25 -24 -24h-108q-24 -1 -23 24v615q0 117 -9 167q-10 54 -41 108q-8 14 -8 21z" />
<glyph unicode="&#x160;" horiz-adv-x="986" vert-adv-y="2528" d="M80 95q0 7 3 15l40 99q4 11 14 11q7 0 35 -15q161 -86 297 -86q125 0 192 71q59 62 59 162q0 110 -82 185q-52 48 -175 118q-157 90 -199 124q-142 114 -142 284q0 126 75 224q111 146 329 146q154 0 289 -67q53 -27 53 -44q0 -4 -4 -14l-37 -93q-4 -12 -16 -12 q-7 0 -88 40q-93 45 -200 45q-101 0 -162 -50q-63 -53 -63 -152q0 -110 83 -174q44 -34 246 -153q111 -66 150 -102q121 -115 121 -284q0 -130 -70 -233q-114 -168 -362 -168q-168 0 -324 74q-62 29 -62 49zM248 1720q0 7 8 18l25 33q10 13 19 13t21 -6l201 -107l201 107 q12 6 21 6t19 -13l25 -33q8 -11 8 -19q0 -11 -13 -20l-223 -153q-21 -15 -38 -15t-38 15l-223 153q-13 9 -13 21z" />
<glyph unicode="&#x161;" horiz-adv-x="797" vert-adv-y="2528" d="M71 72q0 2 2 6l38 89q5 11 15 10q6 0 14 -4q144 -69 250 -69q72 0 116 37q47 41 47 111q0 52 -32 89q-26 30 -98 64q-170 80 -230 128q-93 76 -93 193t80 197q87 88 231 88q107 0 216 -48q47 -21 47 -37q0 -6 -4 -14l-36 -76q-6 -13 -18 -13q-6 0 -16 5q-113 51 -192 51 q-71 0 -112 -33q-44 -36 -44 -103q0 -62 41 -100q29 -28 72 -49l142 -69q109 -53 151 -104q53 -62 53 -158q0 -137 -99 -220q-86 -71 -227 -71q-147 0 -278 67q-28 13 -32 19q-4 4 -4 14zM166 1360q0 7 10 20l27 37q7 10 16 10q8 0 19 -7l188 -122l188 122q13 8 20 8 q8 0 19 -16l24 -32q9 -12 9 -19q0 -9 -14 -20l-227 -180q-12 -10 -19 -10q-6 0 -19 10l-226 180q-15 11 -15 19z" />
<glyph unicode="&#x164;" horiz-adv-x="834" vert-adv-y="2528" d="M9 1290v87q-1 29 28 28h800q28 0 28 -15q0 -4 -4 -18l-30 -88q-7 -22 -30 -22h-296v-1234q1 -29 -28 -28h-112q-29 -1 -28 28v1234h-300q-29 -1 -28 28zM144 1720q0 7 8 18l25 33q10 13 19 13t21 -6l201 -107l201 107q12 6 21 6t19 -13l25 -33q8 -11 8 -19q0 -11 -13 -20 l-223 -153q-21 -15 -38 -15t-38 15l-223 153q-13 9 -13 21z" />
<glyph unicode="&#x165;" horiz-adv-x="683" vert-adv-y="2528" d="M16 880v80q-1 24 24 23h146v281q-1 20 21 25l106 30q9 3 13 3q14 0 14 -23v-316h307q19 0 19 -13q0 -4 -3 -14l-22 -80q-4 -20 -28 -19h-273v-578q0 -95 20 -124q30 -43 103 -43q69 0 184 53q8 4 14 4q10 0 14 -14l24 -83q3 -8 3 -11q0 -13 -46 -34q-106 -48 -219 -48 q-161 0 -222 110q-29 52 -29 189v579h-146q-25 -1 -24 23zM418 1094q0 3 3 14l102 348q6 20 26 19h140q24 0 24 -13q0 -5 -7 -17l-200 -367q-9 -16 -16 -16q-5 0 -15 3l-38 13q-19 7 -19 16z" />
<glyph unicode="&#x16e;" horiz-adv-x="1213" vert-adv-y="2528" d="M174 377v1000q-1 29 28 28h113q29 1 28 -28v-995q0 -136 50 -198q60 -75 210 -75q146 0 220 78q58 61 58 195v995q-1 29 28 28h105q29 1 28 -28v-1000q0 -185 -96 -283q-64 -66 -150 -95q-79 -27 -201 -27q-421 0 -421 405zM420 1688q0 80 62 138q52 48 128 48 q81 0 137 -62q48 -53 48 -126q0 -84 -62 -140q-54 -48 -126 -48q-83 0 -139 62q-48 54 -48 128zM517 1686q0 -41 30 -68q26 -24 60 -24q40 0 67 31q23 26 23 62q0 39 -30 67q-25 24 -61 24q-39 0 -66 -31q-23 -25 -23 -61z" />
<glyph unicode="&#x16f;" vert-adv-y="2528" d="M150 245v708q0 20 21 26l107 28q8 2 13 2q14 0 14 -23v-638q0 -113 20 -162q30 -75 128 -75q78 0 170 47q45 23 86 58v737q0 20 21 26l107 28q8 2 13 2q14 0 14 -23v-714q0 -82 13 -130q10 -36 41 -81q5 -8 5 -13q0 -6 -7 -11l-93 -60q-8 -5 -14 -5q-12 0 -35 39 q-22 36 -37 84q-73 -57 -129 -83q-83 -40 -175 -40q-283 0 -283 273zM330 1284q0 79 60 134q51 47 125 47q78 0 132 -60q47 -52 47 -122q0 -82 -60 -136q-52 -47 -122 -47q-81 0 -135 60q-47 53 -47 124zM425 1282q0 -39 29 -65q25 -23 58 -23q39 0 64 29q23 26 23 60 q0 38 -29 65q-24 23 -59 23q-38 0 -64 -30q-22 -25 -22 -59z" />
<glyph unicode="&#x17d;" horiz-adv-x="910" vert-adv-y="2528" d="M54 28v108l603 1127h-542q-27 0 -27 17q0 6 2 15l22 86q6 24 30 24h683q29 1 28 -28v-99l-607 -1132h601q18 0 24 -5q5 -6 5 -23v-90q0 -29 -29 -28h-765q-29 -1 -28 28zM182 1720q0 7 8 18l25 33q10 13 19 13t21 -6l201 -107l201 107q12 6 21 6t19 -13l25 -33 q8 -11 8 -19q0 -11 -13 -20l-223 -153q-21 -15 -38 -15t-38 15l-223 153q-13 9 -13 21z" />
<glyph unicode="&#x17e;" horiz-adv-x="834" vert-adv-y="2528" d="M65 23v83l517 748h-452q-24 -1 -23 23v83q-1 24 23 23h622q24 1 23 -23v-85l-511 -742h510q23 0 23 -13q0 -5 -4 -15l-38 -87q-8 -18 -26 -18h-641q-15 0 -19 4t-4 19zM199 1360q0 7 10 20l27 37q7 10 16 10q8 0 19 -7l188 -122l188 122q13 8 20 8q8 0 19 -16l24 -32 q9 -12 9 -19q0 -9 -14 -20l-227 -180q-12 -10 -19 -10q-6 0 -19 10l-226 180q-15 11 -15 19z" />
<glyph unicode="&#x2c6;" vert-adv-y="2528" d="M252 1218q0 9 15 20l226 180q13 10 19 10t19 -10l227 -180q14 -11 14 -19t-9 -20l-28 -37q-7 -10 -16 -10q-8 0 -19 7l-188 122l-188 -122q-13 -8 -19 -8q-8 0 -20 15l-24 33q-9 13 -9 19z" />
<glyph unicode="&#x2da;" vert-adv-y="2528" d="M330 1284q0 79 60 134q51 47 125 47q78 0 132 -60q47 -52 47 -122q0 -82 -60 -136q-52 -47 -122 -47q-81 0 -135 60q-47 53 -47 124zM425 1282q0 -39 29 -65q25 -23 58 -23q39 0 64 29q23 26 23 60q0 38 -29 65q-24 23 -59 23q-38 0 -64 -30q-22 -25 -22 -59z" />
<glyph unicode="&#x2dc;" vert-adv-y="2528" d="M208 1234q0 10 22 47q35 60 67 82q44 32 97 32q42 0 99 -28q24 -11 72 -39q29 -16 57 -16q62 0 93 63q8 17 18 17q4 0 13 -4l56 -24q15 -6 15 -17q0 -26 -52 -94q-53 -68 -138 -68q-48 0 -123 43q-70 40 -105 40q-54 0 -88 -62q-9 -16 -19 -16q-5 0 -13 3l-55 24 q-16 6 -16 17z" />
<glyph unicode="&#x2000;" horiz-adv-x="937" vert-adv-y="0" />
<glyph unicode="&#x2001;" horiz-adv-x="1874" vert-adv-y="0" />
<glyph unicode="&#x2002;" horiz-adv-x="937" vert-adv-y="0" />
<glyph unicode="&#x2003;" horiz-adv-x="1874" vert-adv-y="0" />
<glyph unicode="&#x2004;" horiz-adv-x="624" vert-adv-y="0" />
<glyph unicode="&#x2005;" horiz-adv-x="468" vert-adv-y="0" />
<glyph unicode="&#x2006;" horiz-adv-x="312" vert-adv-y="0" />
<glyph unicode="&#x2007;" horiz-adv-x="312" vert-adv-y="0" />
<glyph unicode="&#x2008;" horiz-adv-x="234" vert-adv-y="0" />
<glyph unicode="&#x2009;" horiz-adv-x="374" vert-adv-y="0" />
<glyph unicode="&#x200a;" horiz-adv-x="104" vert-adv-y="0" />
<glyph unicode="&#x2010;" horiz-adv-x="721" vert-adv-y="2528" d="M77 474v98q-1 29 28 28h513q28 1 28 -28v-98q0 -29 -28 -28h-513q-29 -1 -28 28z" />
<glyph unicode="&#x2011;" horiz-adv-x="721" vert-adv-y="2528" d="M77 474v98q-1 29 28 28h513q28 1 28 -28v-98q0 -29 -28 -28h-513q-29 -1 -28 28z" />
<glyph unicode="&#x2012;" horiz-adv-x="721" vert-adv-y="2528" d="M77 474v98q-1 29 28 28h513q28 1 28 -28v-98q0 -29 -28 -28h-513q-29 -1 -28 28z" />
<glyph unicode="&#x2013;" vert-adv-y="2528" d="M80 483v81q-1 28 28 28h809q29 0 28 -28v-81q1 -29 -28 -28h-809q-29 -1 -28 28z" />
<glyph unicode="&#x2014;" horiz-adv-x="1593" vert-adv-y="2528" d="M77 484v78q0 29 28 28h1385q29 0 28 -28v-78q1 -29 -28 -28h-1385q-29 -1 -28 28z" />
<glyph unicode="&#x2018;" horiz-adv-x="493" vert-adv-y="2528" d="M50 990q0 6 7 20l237 433q10 19 18 19q6 0 18 -4l45 -16q22 -8 22 -18q0 -3 -3 -17l-120 -409q-7 -23 -31 -23h-165q-28 0 -28 15z" />
<glyph unicode="&#x2019;" horiz-adv-x="493" vert-adv-y="2528" d="M96 999q0 3 4 17l120 409q5 23 30 23h165q28 0 28 -16q0 -6 -7 -19l-236 -433q-10 -19 -19 -19q-5 0 -18 4l-45 16q-22 7 -22 18z" />
<glyph unicode="&#x201a;" horiz-adv-x="493" vert-adv-y="2528" d="M96 -215q0 3 4 17l120 409q5 24 30 23h165q28 0 28 -15q0 -7 -7 -20l-236 -433q-11 -19 -20 -19q-4 0 -17 5l-45 15q-22 8 -22 18z" />
<glyph unicode="&#x201c;" horiz-adv-x="835" vert-adv-y="2528" d="M50 990q0 6 7 20l237 433q10 19 19 19q5 0 17 -4l45 -16q22 -8 22 -18q0 -3 -3 -17l-120 -409q-7 -23 -31 -23h-165q-28 0 -28 15zM391 990q0 5 8 20l236 433q10 19 19 19q5 0 17 -4l46 -16q22 -8 22 -18q0 -2 -4 -17l-120 -409q-7 -23 -31 -23h-165q-28 0 -28 15z" />
<glyph unicode="&#x201d;" horiz-adv-x="835" vert-adv-y="2528" d="M96 999q0 3 4 17l120 409q5 23 30 23h165q28 0 28 -16q0 -6 -7 -19l-236 -433q-10 -19 -19 -19q-5 0 -18 4l-45 16q-22 7 -22 18zM437 999q0 2 4 17l120 409q5 23 31 23h165q29 0 28 -15q0 -6 -8 -20l-236 -433q-10 -19 -19 -19q-5 0 -17 4l-46 16q-22 7 -22 18z" />
<glyph unicode="&#x201e;" horiz-adv-x="835" vert-adv-y="2528" d="M96 -215q0 3 4 17l120 409q6 24 30 23h165q28 0 28 -15q0 -7 -7 -20l-236 -433q-11 -19 -20 -19q-4 0 -17 5l-45 15q-22 8 -22 18zM437 -215q0 3 4 17l120 409q6 24 31 23h165q28 0 28 -15q0 -5 -8 -20l-236 -433q-10 -19 -19 -19q-5 0 -17 5l-46 15q-22 8 -22 18z" />
<glyph unicode="&#x2022;" horiz-adv-x="1405" vert-adv-y="2528" d="M413 713q0 124 86 208q87 85 210 85q117 0 202 -85q86 -86 86 -207t-86 -207q-85 -85 -206 -85t-206 85q-86 86 -86 206z" />
<glyph unicode="&#x2026;" horiz-adv-x="1821" vert-adv-y="2528" d="M159 116q0 63 48 106q41 37 98 37q62 0 105 -48q37 -41 37 -96q0 -64 -48 -107q-40 -37 -96 -37q-64 0 -107 48q-37 40 -37 97zM766 116q0 63 48 106q41 37 98 37q62 0 105 -48q37 -41 37 -96q0 -64 -48 -107q-40 -37 -96 -37q-64 0 -107 48q-37 40 -37 97zM1373 116 q0 63 48 106q41 37 98 37q62 0 105 -48q37 -41 37 -96q0 -64 -48 -107q-40 -37 -96 -37q-64 0 -107 48q-37 40 -37 97z" />
<glyph unicode="&#x202f;" horiz-adv-x="374" vert-adv-y="0" />
<glyph unicode="&#x2039;" horiz-adv-x="607" vert-adv-y="2528" d="M94 491q0 8 8 19l344 433q11 14 20 14q6 0 18 -6l57 -31q18 -10 18 -20q0 -6 -9 -19l-264 -390l264 -390q10 -14 10 -20q0 -8 -19 -19l-57 -31q-14 -7 -19 -7q-7 0 -19 15l-344 433q-8 10 -8 19z" />
<glyph unicode="&#x203a;" horiz-adv-x="607" vert-adv-y="2528" d="M48 81q0 6 9 19l264 390l-264 390q-9 14 -9 20q0 9 19 19l57 31q13 7 18 7q8 0 20 -15l343 -432q9 -11 9 -20q0 -8 -9 -19l-343 -433q-11 -14 -21 -14q-5 0 -17 7l-57 30q-19 11 -19 20z" />
<glyph unicode="&#x205f;" horiz-adv-x="468" vert-adv-y="0" />
<glyph unicode="&#x2122;" horiz-adv-x="1403" vert-adv-y="2528" d="M22 1334v48q-1 23 26 23h496q26 0 26 -16q0 -4 -3 -12l-19 -50q-5 -17 -26 -16h-175v-684q1 -24 -26 -23h-69q-27 -1 -26 23v684h-178q-27 -1 -26 23zM613 620l1 8l47 755q1 22 27 22h75q21 -1 27 -16l150 -396q3 -10 9 -32q6 22 10 32l151 396q6 16 26 16h79 q26 0 27 -22l47 -755q1 -25 -25 -24h-73q-26 -1 -26 22l-19 577l-154 -398q-8 -17 -27 -17h-37q-20 0 -27 17l-149 398l-18 -577q0 -23 -26 -22h-69q-28 0 -26 16z" />
<glyph unicode="&#x25fc;" horiz-adv-x="1005" vert-adv-y="2010" d="M0 0v1005h1005v-1005h-1005z" />
</font>
</defs>
</svg>
